<?xml version="1.0" encoding="iso-8859-1"?>
<!-- Generator: Adobe Illustrator 16.0.0, SVG Export Plug-In . SVG Version: 6.00 Build 0)  -->
<!DOCTYPE svg PUBLIC "-//W3C//DTD SVG 1.1//EN" "http://www.w3.org/Graphics/SVG/1.1/DTD/svg11.dtd">
<svg version="1.1" id="Capa_1" xmlns="http://www.w3.org/2000/svg" xmlns:xlink="http://www.w3.org/1999/xlink" x="0px" y="0px"
	 width="47px" height="47px" viewBox="0 0 47 47" style="enable-background:new 0 0 47 47;" xml:space="preserve">
<g>
	<g id="Layer_1_95_">
		<g>
			<path d="M27.764,27.771H3.204V4.278h24.56v8.981l2.137,0.456V3.982c0.637-0.37,1.067-1.051,1.067-1.839
				c0-1.179-0.956-2.136-2.136-2.136H2.136C0.956,0.007,0,0.964,0,2.143c0,0.789,0.432,1.469,1.068,1.839v24.857
				c0,0.589,0.478,1.068,1.067,1.068h6.581l-3.84,14.398C4.573,45.444,5.25,46.616,6.39,46.92c0.185,0.049,0.37,0.073,0.552,0.073
				c0.943,0,1.808-0.631,2.063-1.586l4.134-15.5h4.69l4.134,15.5c0.255,0.955,1.118,1.586,2.062,1.586
				c0.183,0,0.367-0.023,0.553-0.073c1.14-0.304,1.816-1.476,1.514-2.614l-3.84-14.398h6.581c0.59,0,1.067-0.479,1.067-1.068v-6.387
				l-2.137-0.457V27.771z"/>
			<path d="M36.848,15.5c2.092,0,3.793-1.698,3.793-3.791c0-2.095-1.701-3.792-3.793-3.792c-2.091,0-3.791,1.696-3.791,3.792
				C33.057,13.802,34.757,15.5,36.848,15.5z"/>
			<path d="M46.855,28.075l-3.922-10.152c-0.315-0.823-1.108-1.366-1.99-1.366h-2.084c-0.586,0-1.098,0.256-1.48,0.641l0.994,7.299
				l-1.525,1.293l-1.523-1.293l0.994-7.299c-0.385-0.385-0.896-0.641-1.482-0.641H32.98l-12.244-2.616
				c-1.153-0.246-2.288,0.49-2.535,1.643c-0.246,1.154,0.489,2.289,1.643,2.535l12.463,2.662c0.129,0.028,0.262,0.043,0.394,0.046
				v9.879l-0.817,14.025c-0.066,1.177,0.831,2.187,2.01,2.256c0.041,0.003,0.084,0.004,0.125,0.004c1.123,0,2.063-0.876,2.131-2.012
				l0.701-12.029l0.7,12.029c0.066,1.136,1.009,2.012,2.132,2.012c0.041,0,0.084-0.001,0.125-0.004
				c1.178-0.069,2.076-1.079,2.008-2.256L41,30.706v-5.948l1.876,4.856c0.425,1.102,1.664,1.646,2.763,1.223
				C46.734,30.412,47.281,29.176,46.855,28.075z"/>
			<path d="M4.806,15.225v9.077c0,0.59,0.478,1.068,1.067,1.068c0.591,0,1.068-0.479,1.068-1.068v-9.077
				c0-0.589-0.478-1.068-1.068-1.068S4.806,14.635,4.806,15.225z"/>
			<path d="M9.61,7.749v16.552c0,0.591,0.478,1.068,1.068,1.068c0.59,0,1.067-0.478,1.067-1.068V7.749
				c0-0.59-0.478-1.068-1.067-1.068C10.088,6.681,9.61,7.159,9.61,7.749z"/>
			<path d="M14.416,12.019v12.282c0,0.591,0.478,1.068,1.067,1.068c0.591,0,1.068-0.478,1.068-1.068V12.019
				c0-0.59-0.478-1.068-1.068-1.068C14.894,10.951,14.416,11.429,14.416,12.019z"/>
		</g>
	</g>
</g>
<g>
</g>
<g>
</g>
<g>
</g>
<g>
</g>
<g>
</g>
<g>
</g>
<g>
</g>
<g>
</g>
<g>
</g>
<g>
</g>
<g>
</g>
<g>
</g>
<g>
</g>
<g>
</g>
<g>
</g>
</svg>
