<svg version="1.1" id="Uploaded to svgrepo.com" xmlns="http://www.w3.org/2000/svg" xmlns:xlink="http://www.w3.org/1999/xlink" x="0px" y="0px"
	 width="32px" height="32px" viewBox="0 0 32 32" style="enable-background:new 0 0 32 32;" xml:space="preserve">
<style type="text/css">
	.avocado_een{fill:#231F20;}
	.avocado_vijf{fill:#DBD2C1;}
	.avocado_zes{fill:#FFFAEE;}
	.st0{fill:#E0A838;}
	.st1{fill:#EAD13F;}
	.st2{fill:#788287;}
	.st3{fill:#3D3935;}
	.st4{fill:#6F9B45;}
	.st5{fill:#CC4121;}
	.st6{fill:#E598A3;}
	.st7{fill:#D36781;}
	.st8{fill:#8D3E93;}
	.st9{fill:#BF63C1;}
	.st10{fill:#A3AEB5;}
	.st11{fill:#AF9480;}
	.st12{fill:#716558;}
	.st13{fill:#0E608E;}
	.st14{fill:#248EBC;}
	.st15{fill:#D1712A;}
	.st16{fill:#C3CC6A;}
</style>
<g>
	<polygon class="avocado_zes" points="17.207,26.5 10.5,26.5 10.5,17.793 9.207,16.5 2.5,16.5 2.5,2.5 21.5,2.5 21.5,12.5 
		29.5,12.5 29.5,26.5 22.793,26.5 20,29.293 	"/>
	<g>
		<g>
			<path class="avocado_vijf" d="M24,17v1h-8l-4,4l-1.5-1.5v-2.714l1.5,1.5l2.786-2.786H21.5v-4H23V17H24z M16,20h8v-1h-8V20z
				 M16,22h8v-1h-8V22z M16,7H8v1h8V7z M16,9H8v1h8V9z M16,11H8v1h8V11z"/>
		</g>
	</g>
	<path class="avocado_een" d="M22,12V2H2v15h7l1,1v9h7l3,3l3-3h7V12H22z M9.414,16H3V3h18v13h-6.414L12,18.586L9.414,16z
		 M29,26h-6.414L20,28.586L17.414,26H11v-7l1,1l3-3h7v-4h7V26z"/>
</g>
</svg>