<?xml version="1.0" encoding="iso-8859-1"?>
<!-- Generator: Adobe Illustrator 19.0.0, SVG Export Plug-In . SVG Version: 6.00 Build 0)  -->
<svg version="1.1" id="Capa_1" xmlns="http://www.w3.org/2000/svg" xmlns:xlink="http://www.w3.org/1999/xlink" x="0px" y="0px"
	 viewBox="0 0 490 490" style="enable-background:new 0 0 490 490;" xml:space="preserve">
<g>
	<path d="M412.877,399.117c-42.527,0-77.122,36.093-77.122,80.457V490H490v-10.426C490,435.21,455.404,399.117,412.877,399.117z
		 M357.472,469.149c4.662-27.917,27.733-49.181,55.406-49.181c27.672,0,50.743,21.264,55.406,49.181H357.472z"/>
	<path d="M245,399.117c-42.527,0-77.123,36.093-77.123,80.457V490h154.235v-10.426C322.113,435.21,287.516,399.117,245,399.117z
		 M189.594,469.149c4.663-27.917,27.734-49.181,55.406-49.181c27.662,0,50.733,21.264,55.396,49.181H189.594z"/>
	<path d="M77.113,399.117C34.595,399.117,0,435.21,0,479.574V490h154.234v-10.426C154.234,435.21,119.639,399.117,77.113,399.117z
		 M21.716,469.149c4.663-27.917,27.734-49.181,55.396-49.181c27.672,0,50.743,21.264,55.405,49.181H21.716z"/>
	<path d="M368.701,351.2c0,25.29,19.812,45.866,44.176,45.866c24.363,0,44.176-20.576,44.176-45.866s-19.813-45.866-44.176-45.866
		C388.514,305.334,368.701,325.91,368.701,351.2z M412.877,326.185c12.859,0,23.325,11.22,23.325,25.016
		s-10.466,25.016-23.325,25.016s-23.325-11.22-23.325-25.016S400.018,326.185,412.877,326.185z"/>
	<path d="M200.813,351.2c0,25.29,19.823,45.866,44.187,45.866c24.364,0,44.176-20.576,44.176-45.866S269.364,305.334,245,305.334
		C220.637,305.334,200.813,325.91,200.813,351.2z M268.325,351.2c0,13.796-10.466,25.016-23.325,25.016
		c-12.869,0-23.335-11.22-23.335-25.016s10.466-25.016,23.335-25.016C257.859,326.185,268.325,337.404,268.325,351.2z"/>
	<path d="M77.113,397.066c24.363,0,44.176-20.576,44.176-45.866s-19.813-45.866-44.176-45.866
		c-24.364,0-44.176,20.576-44.176,45.866S52.749,397.066,77.113,397.066z M77.113,326.185c12.859,0,23.325,11.22,23.325,25.016
		s-10.466,25.016-23.325,25.016s-23.325-11.22-23.325-25.016S64.254,326.185,77.113,326.185z"/>
	<path d="M133.547,285.466l20.525,3.634l12.66-71.583h156.525l12.66,71.583l20.525-3.634l-12.017-67.949h62.659V0H82.905v217.517
		h62.659L133.547,285.466z M103.756,20.851h282.478v175.814H103.756V20.851z"/>
</g>
<g>
</g>
<g>
</g>
<g>
</g>
<g>
</g>
<g>
</g>
<g>
</g>
<g>
</g>
<g>
</g>
<g>
</g>
<g>
</g>
<g>
</g>
<g>
</g>
<g>
</g>
<g>
</g>
<g>
</g>
</svg>
