<?xml version="1.0" encoding="iso-8859-1"?>
<!-- Generator: Adobe Illustrator 16.0.0, SVG Export Plug-In . SVG Version: 6.00 Build 0)  -->
<!DOCTYPE svg PUBLIC "-//W3C//DTD SVG 1.1//EN" "http://www.w3.org/Graphics/SVG/1.1/DTD/svg11.dtd">
<svg version="1.1" id="Capa_1" xmlns="http://www.w3.org/2000/svg" xmlns:xlink="http://www.w3.org/1999/xlink" x="0px" y="0px"
	 width="82.38px" height="82.38px" viewBox="0 0 82.38 82.38" style="enable-background:new 0 0 82.38 82.38;" xml:space="preserve"
	>
<g>
	<path d="M82.38,64.778v15.706H0V64.778h66.857c0.031-3.323-0.522-7.079-2.625-9.851c-1.854-2.444-4.709-3.817-8.492-4.104
		c-0.309,0.585-0.904,0.996-1.612,0.996H50.96c-1.021,0-1.849-0.827-1.849-1.849c0-1.022,0.828-1.85,1.849-1.85h3.168
		c0.827,0,1.501,0.553,1.737,1.301c4.193,0.318,7.385,1.877,9.492,4.656c2.34,3.088,2.955,7.145,2.926,10.698H82.38V64.778z
		 M41.19,36.269c9.492,0,17.187-7.694,17.187-17.187c0-9.493-7.695-17.186-17.187-17.186c-9.493,0-17.187,7.694-17.187,17.187
		C24.003,28.576,31.697,36.269,41.19,36.269z M62.24,56.587c-1.23-1.623-3.045-2.606-5.525-2.989
		c-0.736,0.557-1.638,0.872-2.587,0.872H50.96c-2.397,0-4.349-1.951-4.349-4.35c0-2.397,1.951-4.349,4.349-4.349h3.168
		c1.257,0,2.412,0.543,3.213,1.442c3.755,0.512,6.786,1.978,9.042,4.365c-0.007-0.089-0.004-0.18-0.012-0.269l-0.791-3.935
		c-1.93-6.203-6.958-11.046-13.271-12.716c-2.92,2.724-6.822,4.404-11.119,4.404c-4.298,0-8.202-1.681-11.119-4.404
		c-8.122,2.147-14.137,9.537-14.137,18.322v9.443h48.313C63.994,59.996,63.314,58.003,62.24,56.587z"/>
</g>
<g>
</g>
<g>
</g>
<g>
</g>
<g>
</g>
<g>
</g>
<g>
</g>
<g>
</g>
<g>
</g>
<g>
</g>
<g>
</g>
<g>
</g>
<g>
</g>
<g>
</g>
<g>
</g>
<g>
</g>
</svg>
