<?xml version="1.0" encoding="iso-8859-1"?>
<!-- Generator: Adobe Illustrator 19.0.0, SVG Export Plug-In . SVG Version: 6.00 Build 0)  -->
<svg version="1.1" id="Layer_1" xmlns="http://www.w3.org/2000/svg" xmlns:xlink="http://www.w3.org/1999/xlink" x="0px" y="0px"
	 viewBox="0 0 512 512" style="enable-background:new 0 0 512 512;" xml:space="preserve">
<path style="fill:#E9EBEF;" d="M51.2,460.8c-21.171,0-38.4-17.229-38.4-38.4v-256c0-21.171,17.229-38.4,38.4-38.4h89.6v12.8
	c0,7.057,5.743,12.8,12.8,12.8h204.8c7.057,0,12.8-5.743,12.8-12.8V128h89.6c21.171,0,38.4,17.229,38.4,38.4v256
	c0,21.171-17.229,38.4-38.4,38.4H51.2z"/>
<circle style="fill:#919CB0;" cx="422.4" cy="384" r="25.6"/>
<g>
	<polygon style="fill:#6FB0B6;" points="137.728,409.6 137.728,358.4 199.612,358.4 208.922,409.6 	"/>
	<polygon style="fill:#6FB0B6;" points="66.543,409.6 75.844,358.4 137.728,358.4 137.728,409.6 	"/>
</g>
<path style="fill:#FFE7E5;" d="M137.728,332.8c-35.294,0-64-28.706-64-64s28.706-64,64-64s64,28.706,64,64
	S173.013,332.8,137.728,332.8z"/>
<polygon style="fill:#FEDEA1;" points="140.8,153.6 140.8,102.4 192,102.4 192,51.2 320,51.2 320,102.4 371.2,102.4 371.2,153.6 "/>
<g>
	<path style="fill:#573A32;" d="M214.528,268.8c0-42.351-34.449-76.8-76.8-76.8s-76.8,34.449-76.8,76.8s34.449,76.8,76.8,76.8
		S214.528,311.151,214.528,268.8z M137.728,320c-28.279,0-51.2-22.921-51.2-51.2s22.921-51.2,51.2-51.2s51.2,22.921,51.2,51.2
		S166.007,320,137.728,320z"/>
	<path style="fill:#573A32;" d="M460.8,115.2H384c0-14.14-11.46-25.6-25.6-25.6h-25.6V64c0-14.14-11.46-25.6-25.6-25.6H204.8
		c-14.14,0-25.6,11.46-25.6,25.6v25.6h-25.6c-14.14,0-25.6,11.46-25.6,25.6H51.2C22.972,115.2,0,138.172,0,166.4v256
		c0,28.228,22.972,51.2,51.2,51.2h409.6c28.228,0,51.2-22.972,51.2-51.2v-256C512,138.172,489.028,115.2,460.8,115.2z M153.6,115.2
		h51.2V64h102.4v51.2h51.2v25.6H153.6V115.2z M486.4,422.4c0,14.14-11.46,25.6-25.6,25.6H51.2c-14.14,0-25.6-11.46-25.6-25.6v-256
		c0-14.14,11.46-25.6,25.6-25.6H128c0,14.14,11.46,25.6,25.6,25.6h204.8c14.14,0,25.6-11.46,25.6-25.6h76.8
		c14.14,0,25.6,11.46,25.6,25.6V422.4z"/>
	<rect x="256" y="192" style="fill:#573A32;" width="204.8" height="25.6"/>
	<rect x="256" y="243.2" style="fill:#573A32;" width="128" height="25.6"/>
	<rect x="256" y="294.4" style="fill:#573A32;" width="179.2" height="25.6"/>
	<rect x="256" y="345.6" style="fill:#573A32;" width="102.4" height="25.6"/>
	<path style="fill:#573A32;" d="M422.4,345.6c-21.205,0-38.4,17.195-38.4,38.4c0,21.205,17.195,38.4,38.4,38.4
		c21.205,0,38.4-17.195,38.4-38.4C460.8,362.795,443.605,345.6,422.4,345.6z M422.4,396.8c-7.057,0-12.8-5.743-12.8-12.8
		s5.743-12.8,12.8-12.8s12.8,5.743,12.8,12.8S429.457,396.8,422.4,396.8z"/>
	<path style="fill:#573A32;" d="M188.928,345.6h-51.2h-51.2c-12.373,0-22.972,8.849-25.19,21.026L51.2,422.4h173.056l-10.138-55.774
		C211.9,354.449,201.301,345.6,188.928,345.6z M124.928,396.8H81.877l4.651-25.6h38.4V396.8z M150.528,396.8v-25.6h38.4l4.651,25.6
		H150.528z"/>
</g>
<g>
</g>
<g>
</g>
<g>
</g>
<g>
</g>
<g>
</g>
<g>
</g>
<g>
</g>
<g>
</g>
<g>
</g>
<g>
</g>
<g>
</g>
<g>
</g>
<g>
</g>
<g>
</g>
<g>
</g>
</svg>
