<?xml version="1.0" encoding="iso-8859-1"?>
<!-- Generator: Adobe Illustrator 16.0.0, SVG Export Plug-In . SVG Version: 6.00 Build 0)  -->
<!DOCTYPE svg PUBLIC "-//W3C//DTD SVG 1.1//EN" "http://www.w3.org/Graphics/SVG/1.1/DTD/svg11.dtd">
<svg version="1.1" id="Capa_1" xmlns="http://www.w3.org/2000/svg" xmlns:xlink="http://www.w3.org/1999/xlink" x="0px" y="0px"
	 width="43.491px" height="43.491px" viewBox="0 0 43.491 43.491" style="enable-background:new 0 0 43.491 43.491;"
	 xml:space="preserve">
<g>
	<g>
		<path d="M41.625,9.778c-0.378-0.23-3.22-1.961-3.22-1.961s2.054-5.874,1.875-6.688C40.104,0.316,39.232,0,39.232,0l-3.461,6.388
			l-3.557-1.546l-0.021-2.333l-1.087-0.966c0,0-0.317,2.663-0.77,3.308c-0.449,0.644-2.229,1.851-2.229,1.851l0.938,0.95
			l2.426-1.307l2.991,2.071l-3.716,6.216c0,0,0.749,0.923,1.486,0.521c0.736-0.402,4.342-5.037,4.342-5.037s3.501,1.958,3.873,2.043
			c0.372,0.087,1.291,0.574,1.757-0.54C42.67,10.506,42.003,10.008,41.625,9.778z"/>
		<path d="M36.078,16.177c-0.525-0.631-1.115-1.204-1.732-1.745l-0.899,0.93c0.565,0.492,1.108,1.013,1.592,1.587
			c-0.875,0.573-1.894,1.078-3.024,1.496c-0.832-2.472-2.047-4.528-3.511-5.924c0.554,0.181,1.089,0.401,1.609,0.646l0.688-1.107
			c-2.05-0.985-4.346-1.539-6.768-1.539c-0.01,0-0.016,0-0.021,0s-0.011,0-0.016,0c-0.018,0-0.035,0.002-0.055,0.002
			c-4.798,0.028-9.092,2.224-11.951,5.654c-0.264,0.317-0.514,0.645-0.752,0.982c-1.813,2.557-2.882,5.674-2.882,9.04
			c0,3.365,1.069,6.482,2.882,9.04c0.238,0.337,0.488,0.666,0.752,0.981c2.86,3.431,7.153,5.625,11.951,5.653
			c0.02,0,0.037,0.002,0.055,0.002c0.005,0,0.01,0,0.016,0s0.014,0,0.021,0c4.836,0,9.167-2.202,12.045-5.655
			c0.264-0.316,0.514-0.646,0.752-0.982c1.812-2.557,2.881-5.676,2.881-9.04c0-3.365-1.068-6.483-2.881-9.04
			C36.592,16.822,36.344,16.493,36.078,16.177z M19.451,12.56c-1.441,1.39-2.638,3.422-3.463,5.861
			c-1.106-0.413-2.102-0.91-2.959-1.473C14.712,14.951,16.924,13.412,19.451,12.56z M12.274,17.932
			c0.974,0.651,2.101,1.22,3.347,1.689c-0.537,1.964-0.846,4.145-0.856,6.446H9.646C9.675,23.04,10.647,20.24,12.274,17.932z
			 M9.693,27.354h5.096c0.083,1.926,0.375,3.752,0.832,5.424c-1.246,0.469-2.373,1.039-3.347,1.689
			C10.832,32.421,9.904,29.988,9.693,27.354z M13.033,35.447c0.857-0.561,1.85-1.057,2.953-1.469
			c0.826,2.438,2.023,4.47,3.465,5.859C16.924,38.986,14.716,37.445,13.033,35.447z M23.391,40.543
			c-2.639-0.361-4.917-3.068-6.209-6.967c1.862-0.559,3.971-0.896,6.209-0.952V40.543z M23.391,31.339
			c-2.36,0.058-4.587,0.423-6.568,1.03c-0.406-1.542-0.666-3.232-0.745-5.016h7.313V31.339z M23.391,26.066h-7.339
			c0.011-2.16,0.292-4.201,0.776-6.036c1.979,0.606,4.204,0.972,6.563,1.028V26.066L23.391,26.066z M23.391,19.773
			c-2.237-0.055-4.346-0.392-6.207-0.95c1.293-3.896,3.568-6.607,6.207-6.969V19.773z M24.678,11.864
			c2.61,0.403,4.858,3.108,6.137,6.979c-1.844,0.546-3.926,0.877-6.137,0.931V11.864z M24.678,21.059
			c2.332-0.056,4.53-0.413,6.494-1.007c0.479,1.829,0.76,3.863,0.77,6.015h-7.264V21.059z M24.678,27.354h7.238
			c-0.078,1.774-0.337,3.457-0.738,4.994c-1.965-0.595-4.168-0.953-6.5-1.009V27.354z M24.678,40.534v-7.909
			c2.211,0.055,4.295,0.385,6.141,0.932C29.539,37.428,27.288,40.13,24.678,40.534z M28.502,39.876
			c1.463-1.396,2.682-3.45,3.514-5.922c1.129,0.417,2.146,0.921,3.021,1.493C33.327,37.475,31.077,39.033,28.502,39.876z
			 M35.794,34.467c-0.991-0.664-2.144-1.242-3.416-1.716c0.452-1.664,0.742-3.481,0.824-5.397h5.173
			C38.164,29.988,37.236,32.421,35.794,34.467z M33.229,26.066c-0.012-2.291-0.317-4.462-0.852-6.42
			c1.273-0.474,2.424-1.052,3.415-1.714c1.626,2.308,2.601,5.108,2.628,8.134H33.229z"/>
		<path d="M3.69,25.822c0-11.465,9.327-20.794,20.794-20.794c1.187,0,2.344,0.117,3.475,0.31l1.316-0.811l0.434-1.44
			c-1.486-0.3-3.65-0.622-5.225-0.622c-12.88,0-23.357,10.479-23.357,23.357c0,1.355,0.069,2.625,0.222,3.83
			c0.641,5.061,7.079,13.838,12.19,13.839C8.005,39.533,3.69,33.273,3.69,25.822z"/>
	</g>
</g>
<g>
</g>
<g>
</g>
<g>
</g>
<g>
</g>
<g>
</g>
<g>
</g>
<g>
</g>
<g>
</g>
<g>
</g>
<g>
</g>
<g>
</g>
<g>
</g>
<g>
</g>
<g>
</g>
<g>
</g>
</svg>
