<?xml version="1.0" encoding="iso-8859-1"?>
<!-- Generator: Adobe Illustrator 19.0.0, SVG Export Plug-In . SVG Version: 6.00 Build 0)  -->
<svg version="1.1" id="Layer_1" xmlns="http://www.w3.org/2000/svg" xmlns:xlink="http://www.w3.org/1999/xlink" x="0px" y="0px"
	 viewBox="0 0 512 512" style="enable-background:new 0 0 512 512;" xml:space="preserve">
<g>
	<g>
		<path d="M437.019,74.98C388.667,26.628,324.381,0,256,0C187.621,0,123.333,26.628,74.98,74.98C26.627,123.332,0,187.62,0,256
			s26.628,132.667,74.98,181.02C123.332,485.373,187.621,512,256,512c68.381,0,132.667-26.628,181.019-74.98
			C485.372,388.667,512,324.38,512,256S485.372,123.333,437.019,74.98z M80.456,99.044c36.986,40.607,58.22,92.054,60.572,146.756
			H20.633C23.041,189.565,45.25,138.378,80.456,99.044z M20.633,266.199h120.394c-2.351,54.703-23.585,106.15-60.572,146.756
			C45.25,373.622,23.041,322.435,20.633,266.199z M245.801,491.367c-58.32-2.497-111.211-26.29-151.081-63.79
			c40.925-44.508,64.34-101.148,66.718-161.378h84.363V491.367z M161.438,245.801c-2.379-60.229-25.793-116.87-66.719-161.378
			c39.871-37.5,92.761-61.292,151.081-63.79l0.001,225.168H161.438z M266.199,245.801V20.633
			c58.32,2.497,111.211,26.29,151.082,63.79c-40.926,44.508-64.34,101.149-66.719,161.378L266.199,245.801L266.199,245.801z
			 M266.199,491.367V266.199h84.363c2.379,60.229,25.793,116.87,66.719,161.378C377.41,465.076,324.52,488.869,266.199,491.367z
			 M431.544,412.957c-36.986-40.607-58.22-92.054-60.571-146.757h51.274c5.632,0,10.199-4.566,10.199-10.199
			s-4.567-10.199-10.199-10.199h-51.274c2.351-54.703,23.585-106.15,60.571-146.757c37.324,41.7,60.058,96.72,60.058,156.957
			S468.868,371.256,431.544,412.957z"/>
	</g>
</g>
<g>
	<g>
		<path d="M463.044,245.801h-4.08c-5.632,0-10.199,4.566-10.199,10.199s4.567,10.199,10.199,10.199h4.08
			c5.632,0,10.199-4.566,10.199-10.199S468.676,245.801,463.044,245.801z"/>
	</g>
</g>
<g>
</g>
<g>
</g>
<g>
</g>
<g>
</g>
<g>
</g>
<g>
</g>
<g>
</g>
<g>
</g>
<g>
</g>
<g>
</g>
<g>
</g>
<g>
</g>
<g>
</g>
<g>
</g>
<g>
</g>
</svg>
