<?xml version="1.0" encoding="iso-8859-1"?>
<!-- Generator: Adobe Illustrator 16.0.0, SVG Export Plug-In . SVG Version: 6.00 Build 0)  -->
<!DOCTYPE svg PUBLIC "-//W3C//DTD SVG 1.1//EN" "http://www.w3.org/Graphics/SVG/1.1/DTD/svg11.dtd">
<svg version="1.1" id="Capa_1" xmlns="http://www.w3.org/2000/svg" xmlns:xlink="http://www.w3.org/1999/xlink" x="0px" y="0px"
	 width="124.1px" height="124.1px" viewBox="0 0 124.1 124.1" style="enable-background:new 0 0 124.1 124.1;" xml:space="preserve"
	>
<g>
	<path d="M124,55.15c0-6.9-5.3-12.2-12.2-12.2H96v9.6c0,7-2.8,13.9-8,18.9c-5.1,4.9-11.6,7.5-18.6,7.5H42v10c0,6.9,5.7,13,12.6,13
		H92l6.9,11.9c1.6,2.899,4.6,4.3,7.899,4.3c4.9,0,9.3-3.9,9.3-8.8v-8.301c4-1.399,8-6.3,8-12.1v-33.8H124z"/>
	<path d="M8,64.549v8.4c0,4.9,4.3,8.7,9.3,8.7c3.2,0,6.4-1.7,8-4.601l6.7-12.1h10h27.4c6.899,0,12.6-5.5,12.6-12.4v-9.6v-24.2
		c0-6.9-5.7-12.8-12.6-12.8H69H12.2C5.3,5.95,0,11.85,0,18.75v33.8C0,58.25,4,63.15,8,64.549z"/>
</g>
<g>
</g>
<g>
</g>
<g>
</g>
<g>
</g>
<g>
</g>
<g>
</g>
<g>
</g>
<g>
</g>
<g>
</g>
<g>
</g>
<g>
</g>
<g>
</g>
<g>
</g>
<g>
</g>
<g>
</g>
</svg>
