<?xml version="1.0" encoding="iso-8859-1"?>
<!-- Generator: Adobe Illustrator 19.0.0, SVG Export Plug-In . SVG Version: 6.00 Build 0)  -->
<svg version="1.1" id="Layer_1" xmlns="http://www.w3.org/2000/svg" xmlns:xlink="http://www.w3.org/1999/xlink" x="0px" y="0px"
	 viewBox="0 0 512 512" style="enable-background:new 0 0 512 512;" xml:space="preserve">
<g>
	<g>
		<path d="M256,0C114.62,0,0,114.611,0,256c0,141.38,114.62,256,256,256s256-114.62,256-256C512,114.611,397.38,0,256,0z M256,486.4
			C128.956,486.4,25.6,383.044,25.6,256S128.956,25.6,256,25.6S486.4,128.956,486.4,256S383.044,486.4,256,486.4z"/>
	</g>
</g>
<g>
	<g>
		<path d="M330.385,268.638c-12.783-10.65-34.261-20.122-64.384-28.399V127.437c14.123,0.802,25.6,4.403,34.398,10.803
			c11.46,8.55,17.604,21.197,18.398,37.999c0,4.548,1.323,8.149,4.002,10.803c2.398,2.398,5.197,3.601,8.397,3.601
			c3.464,0,6.263-1.203,8.397-3.601c2.662-2.654,4.002-6.246,4.002-10.803c0-20.804-7.074-37.598-21.197-50.398
			c-14.14-12.527-32.939-19.328-56.397-20.403V83.84c0-6.648-3.473-10.001-10.402-10.001c-6.673,0-10.001,3.354-10.001,10.001
			v21.598c-23.475,0.802-42.675,7.603-57.6,20.403c-16.273,14.148-24.397,32.947-24.397,56.397c0,20.002,7.202,36.147,21.598,48.401
			c13.065,11.204,33.203,20.002,60.399,26.402v120.798c-19.2-1.852-34.133-7.202-44.8-16
			c-13.875-11.725-20.676-29.047-20.403-52.002c0-4.523-1.203-8.004-3.601-10.402c-2.133-2.398-4.804-3.601-8.004-3.601
			s-5.871,1.203-8.004,3.601c-2.398,2.398-3.601,5.871-3.601,10.402c0,32.273,9.464,55.876,28.399,70.801
			c13.867,10.402,33.86,16.802,59.998,19.2v29.201c0,6.929,3.328,10.402,10.001,10.402c6.929,0,10.402-3.473,10.402-10.402v-28.8
			c24.26-1.852,44.527-9.728,60.8-23.603c17.323-14.925,26.001-33.997,26.001-57.199
			C352.785,297.839,345.31,280.909,330.385,268.638z M245.598,234.641c-20.54-5.325-35.2-12.527-43.998-21.598
			c-8.533-8.798-12.8-20.002-12.8-33.604c0-16.529,6.4-29.602,19.2-39.202c10.402-7.723,22.929-12.126,37.598-13.201V234.641z
			 M305.997,363.034c-11.204,8.277-24.533,13.201-40.004,14.797V263.441c23.202,5.871,38.929,12.552,47.198,20.002
			c9.327,8.277,14.003,21.077,14.003,38.4C327.202,339.191,320.128,352.913,305.997,363.034z"/>
	</g>
</g>
<g>
</g>
<g>
</g>
<g>
</g>
<g>
</g>
<g>
</g>
<g>
</g>
<g>
</g>
<g>
</g>
<g>
</g>
<g>
</g>
<g>
</g>
<g>
</g>
<g>
</g>
<g>
</g>
<g>
</g>
</svg>
