<?xml version="1.0" encoding="iso-8859-1"?>
<!-- Generator: Adobe Illustrator 16.0.0, SVG Export Plug-In . SVG Version: 6.00 Build 0)  -->
<!DOCTYPE svg PUBLIC "-//W3C//DTD SVG 1.1//EN" "http://www.w3.org/Graphics/SVG/1.1/DTD/svg11.dtd">
<svg version="1.1" id="Capa_1" xmlns="http://www.w3.org/2000/svg" xmlns:xlink="http://www.w3.org/1999/xlink" x="0px" y="0px"
	 width="47.001px" height="47.002px" viewBox="0 0 47.001 47.002" style="enable-background:new 0 0 47.001 47.002;"
	 xml:space="preserve">
<g>
	<g>
		<path d="M45.969,25.805c-0.951-0.273-1.65-1.142-1.65-2.182c0-1.046,0.709-1.918,1.668-2.186c0.197-0.055,0.398-0.094,0.611-0.094
			c0.133,0,0.262,0.013,0.389,0.035c-0.004-0.026-0.004-0.054-0.008-0.08c-0.131,0.025-0.267,0.04-0.403,0.04
			c-0.211,0-0.408-0.037-0.603-0.09c-0.966-0.266-1.681-1.14-1.681-2.189c0-0.74,0.359-1.392,0.904-1.808
			c0.27-0.205,0.582-0.35,0.924-0.421c-0.012-0.04-0.021-0.081-0.035-0.121c-0.578-0.142-1.071-0.5-1.385-0.99
			c-0.152-0.241-0.264-0.513-0.315-0.805c-0.025-0.135-0.044-0.273-0.044-0.416c0-0.47,0.154-0.896,0.398-1.256
			c-0.309-0.64-0.648-1.262-1.012-1.867c-0.23,0.249-0.51,0.45-0.83,0.577c0.09,0.15,0.176,0.304,0.262,0.456
			c0.701,0.389,1.182,1.128,1.182,1.986c0,0.113-0.018,0.222-0.032,0.33c-0.16,1.103-1.101,1.95-2.246,1.95
			c-1.26,0-2.278-1.021-2.278-2.28c0-1.259,1.02-2.279,2.278-2.279c-1.26,0-2.278-1.021-2.278-2.279
			c0-0.539,0.192-1.027,0.506-1.418c0.213-0.265,0.481-0.481,0.789-0.632c-0.476-0.53-0.974-1.037-1.492-1.521
			c-0.156,0.305-0.379,0.57-0.646,0.778c-0.387,0.298-0.863,0.482-1.389,0.482c-1.26,0-2.279-1.021-2.279-2.28
			c0-0.315,0.064-0.616,0.18-0.89c0.135-0.316,0.344-0.591,0.598-0.815c-0.602-0.379-1.223-0.73-1.858-1.056
			c-0.354,0.23-0.769,0.373-1.223,0.373c-0.146,0-0.291-0.017-0.431-0.044c-0.311-0.059-0.598-0.179-0.85-0.35
			C31.214,2.14,30.875,1.64,30.75,1.061c-0.035-0.012-0.067-0.024-0.104-0.035C30.599,1.37,30.5,1.697,30.318,1.975
			c-0.406,0.625-1.107,1.04-1.908,1.04c-1.141,0-2.076-0.839-2.246-1.931c-0.018-0.115-0.035-0.229-0.035-0.349
			c0-0.228,0.045-0.443,0.107-0.651c-0.062-0.007-0.125-0.017-0.188-0.023c0.047,0.184,0.08,0.373,0.08,0.571
			c0,0.151-0.017,0.299-0.043,0.441c-0.207,1.048-1.129,1.838-2.236,1.838c-1.129,0-2.061-0.824-2.242-1.903
			c-0.02-0.123-0.037-0.247-0.037-0.376c0-0.222,0.041-0.431,0.102-0.632c-0.078,0.006-0.156,0.011-0.236,0.018
			c0.08,0.229,0.135,0.47,0.135,0.727c0,0.092-0.018,0.18-0.027,0.269c-0.135,1.131-1.086,2.011-2.252,2.011
			c-0.877,0-1.627-0.499-2.01-1.223c-0.152-0.291-0.244-0.619-0.26-0.969c-0.01,0.003-0.02,0.006-0.029,0.008
			c-0.041,0.447-0.207,0.855-0.467,1.191c-0.418,0.537-1.063,0.889-1.795,0.889c-0.137,0-0.271-0.018-0.402-0.041
			c-0.441-0.079-0.826-0.292-1.139-0.584c-0.662,0.322-1.307,0.673-1.93,1.053c0.316,0.169,0.59,0.411,0.797,0.704
			c0.262,0.371,0.418,0.821,0.418,1.311c0,1.26-1.02,2.28-2.279,2.28c-0.738,0-1.387-0.356-1.803-0.9
			C8.178,6.466,8.028,6.14,7.959,5.783c-0.051,0.043-0.1,0.084-0.148,0.128c-0.225,0.748-0.814,1.33-1.57,1.538
			c-0.049,0.053-0.1,0.104-0.148,0.157C6.447,7.689,6.771,7.85,7.04,8.076c0.502,0.419,0.828,1.041,0.828,1.745
			c0,1.259-1.02,2.279-2.279,2.279c1.26,0,2.279,1.021,2.279,2.279c0,1.26-1.02,2.28-2.279,2.28c-1.259,0-2.279-1.021-2.279-2.28
			S4.33,12.1,5.589,12.1c-0.488,0-0.939-0.157-1.311-0.419c-0.289-0.203-0.527-0.473-0.695-0.784
			c-0.367,0.579-0.709,1.175-1.025,1.786c0.285,0.264,0.51,0.593,0.633,0.974c0.07,0.22,0.119,0.449,0.119,0.692
			c0,0.873-0.496,1.622-1.217,2.006c-0.318,0.169-0.678,0.274-1.064,0.274c-0.027,0-0.051-0.009-0.078-0.011
			c-0.002,0.006-0.004,0.011-0.006,0.016c0.014,0,0.023-0.005,0.037-0.005c0.34,0,0.658,0.079,0.949,0.213
			c0.783,0.36,1.33,1.147,1.33,2.067c0,1.236-0.988,2.238-2.215,2.271c-0.023,0.001-0.043,0.007-0.064,0.007
			c-0.33,0-0.639-0.082-0.92-0.209c-0.016,0.154-0.027,0.309-0.041,0.464c0.301-0.147,0.627-0.25,0.984-0.25
			c0.014,0,0.025,0.004,0.039,0.004c1.24,0.021,2.24,1.029,2.24,2.275c0,1.248-1.002,2.259-2.246,2.276
			c-0.012,0.001-0.021,0.004-0.033,0.004c-0.359,0-0.688-0.104-0.99-0.252c0.014,0.15,0.021,0.304,0.037,0.455
			c0.279-0.124,0.58-0.203,0.904-0.203c0.029,0,0.055,0.008,0.084,0.008c1.219,0.045,2.197,1.041,2.197,2.271
			c0,0.918-0.545,1.703-1.326,2.064c-0.291,0.135-0.613,0.215-0.955,0.215c-0.01,0-0.02-0.004-0.029-0.005
			c0.002,0.007,0.002,0.013,0.004,0.019c0.033-0.002,0.064-0.014,0.098-0.014c0.375,0,0.725,0.101,1.037,0.262
			c0.734,0.378,1.242,1.135,1.242,2.019c0,0.259-0.051,0.502-0.131,0.733c-0.129,0.375-0.355,0.697-0.643,0.955
			c0.314,0.611,0.656,1.209,1.021,1.789c0.174-0.31,0.412-0.574,0.703-0.772C4.623,35.047,5.065,34.9,5.539,34.9
			c1.26,0,2.279,1.021,2.279,2.28c0,0.692-0.314,1.306-0.803,1.724c-0.268,0.229-0.588,0.394-0.939,0.481
			c0.064,0.068,0.131,0.134,0.193,0.202c0.678,0.223,1.211,0.748,1.441,1.423c0.078,0.068,0.156,0.134,0.234,0.202
			c0.102-0.339,0.27-0.646,0.504-0.9c0.416-0.455,1.008-0.744,1.674-0.744c1.26,0,2.279,1.021,2.279,2.279
			c0,0.412-0.117,0.795-0.309,1.127c-0.176,0.305-0.424,0.559-0.713,0.754c0.541,0.325,1.098,0.627,1.666,0.909
			c0.293-0.291,0.656-0.51,1.074-0.604c0.166-0.038,0.336-0.063,0.514-0.063c0.785,0,1.479,0.397,1.889,1.003
			c0.225,0.334,0.352,0.735,0.373,1.165c0.016,0.005,0.031,0.009,0.047,0.013c0.033-0.347,0.129-0.674,0.299-0.957
			c0.396-0.668,1.119-1.119,1.951-1.119c1.133,0,2.066,0.828,2.242,1.91c0.02,0.121,0.037,0.244,0.037,0.369
			c0,0.221-0.041,0.428-0.1,0.629c0.082,0.008,0.166,0.014,0.248,0.02c-0.086-0.238-0.148-0.49-0.148-0.76
			c0-0.086,0.018-0.168,0.025-0.252c0.127-1.141,1.082-2.028,2.256-2.028c1.156,0,2.102,0.864,2.248,1.981
			c0.015,0.099,0.031,0.195,0.031,0.299c0,0.255-0.057,0.492-0.135,0.722c0.076-0.008,0.148-0.021,0.223-0.026
			c-0.051-0.189-0.088-0.386-0.088-0.592c0-0.141,0.018-0.277,0.041-0.412c0.195-1.062,1.121-1.867,2.238-1.867
			c0.787,0,1.48,0.397,1.891,1.004c0.187,0.275,0.289,0.603,0.34,0.945c0.021-0.007,0.045-0.016,0.066-0.022
			c0.041-0.462,0.219-0.884,0.494-1.228c0.418-0.52,1.051-0.857,1.77-0.857c0.082,0,0.162,0.016,0.242,0.023
			c0.461,0.051,0.871,0.244,1.207,0.523c0.586-0.303,1.156-0.629,1.713-0.979c-0.262-0.218-0.479-0.486-0.623-0.8
			c-0.133-0.289-0.211-0.606-0.211-0.946c0-1.26,1.021-2.279,2.279-2.279c0.551,0,1.049,0.203,1.443,0.527
			c0.264,0.219,0.475,0.492,0.621,0.805c0.522-0.486,1.026-0.996,1.506-1.528c-0.309-0.147-0.58-0.36-0.795-0.625
			c-0.32-0.394-0.521-0.887-0.521-1.433c0-1.26,1.021-2.28,2.279-2.28c0.307,0,0.598,0.063,0.862,0.172
			c0.32,0.131,0.599,0.337,0.824,0.59c0.348-0.575,0.67-1.17,0.969-1.776c-0.205-0.34-0.328-0.734-0.328-1.161
			c0-1.048,0.709-1.919,1.671-2.188c0.016-0.052,0.03-0.104,0.047-0.153c-0.341-0.078-0.652-0.229-0.918-0.438
			c-0.527-0.418-0.871-1.056-0.871-1.778c0-1.05,0.713-1.924,1.676-2.189c0.193-0.053,0.396-0.092,0.604-0.092
			c0.141,0,0.277,0.017,0.412,0.041c0.002-0.023,0.004-0.049,0.006-0.073c-0.119,0.021-0.242,0.032-0.369,0.032
			C46.378,25.902,46.169,25.861,45.969,25.805z M44.318,23.52c0,1.26-1.021,2.28-2.279,2.28c-1.26,0-2.278-1.021-2.278-2.28
			c0-1.259,1.02-2.279,2.278-2.279C43.296,21.24,44.318,22.261,44.318,23.52z M42.014,16.676c1.26,0,2.278,1.021,2.278,2.28
			c0,1.259-1.02,2.279-2.278,2.279s-2.279-1.021-2.279-2.279C39.734,17.696,40.755,16.676,42.014,16.676z M32.707,2.893
			c0.094-0.013,0.188-0.029,0.285-0.029c0.871,0,1.621,0.495,2.004,1.214c0.17,0.319,0.275,0.679,0.275,1.065
			c0,1.26-1.021,2.28-2.279,2.28c-1.26,0-2.279-1.021-2.279-2.28C30.712,3.982,31.583,3.033,32.707,2.893z M28.432,3.022
			c1.26,0,2.278,1.021,2.278,2.279c0,1.26-1.02,2.28-2.278,2.28s-2.279-1.021-2.279-2.28C26.152,4.042,27.171,3.022,28.432,3.022z
			 M23.873,2.918c1.257,0,2.279,1.021,2.279,2.279c0,1.26-1.021,2.28-2.279,2.28c-1.26,0-2.279-1.021-2.279-2.28
			C21.594,3.939,22.613,2.918,23.873,2.918z M19.312,3.03c1.26,0,2.279,1.021,2.279,2.279c0,1.26-1.02,2.28-2.279,2.28
			s-2.279-1.021-2.279-2.28C17.033,4.051,18.053,3.03,19.312,3.03z M14.754,2.927c1.258,0,2.279,1.021,2.279,2.279
			c0,1.26-1.021,2.28-2.279,2.28c-1.26,0-2.279-1.021-2.279-2.28C12.475,3.947,13.494,2.927,14.754,2.927z M3.258,18.941
			c0-1.26,1.021-2.28,2.279-2.28c1.26,0,2.279,1.021,2.279,2.28c0,1.259-1.02,2.279-2.279,2.279
			C4.279,21.22,3.258,20.199,3.258,18.941z M7.842,23.504c0,1.26-1.021,2.28-2.279,2.28c-1.26,0-2.279-1.021-2.279-2.28
			s1.02-2.279,2.279-2.279C6.82,21.225,7.842,22.245,7.842,23.504z M3.234,28.064c0-1.26,1.02-2.279,2.279-2.279
			c1.259,0,2.279,1.021,2.279,2.279c0,1.26-1.02,2.279-2.279,2.279C4.254,30.344,3.234,29.322,3.234,28.064z M5.586,34.902
			c-1.26,0-2.279-1.021-2.279-2.279c0-1.26,1.02-2.279,2.279-2.279c1.258,0,2.279,1.021,2.279,2.279
			C7.865,33.883,6.844,34.902,5.586,34.902z M10.096,39.566c-1.258,0-2.279-1.021-2.279-2.279c0-1.26,1.021-2.28,2.279-2.28
			c1.26,0,2.281,1.021,2.281,2.28C12.377,38.546,11.355,39.566,10.096,39.566z M14.682,43.973c-1.26,0-2.281-1.021-2.281-2.279
			c0-1.26,1.021-2.279,2.281-2.279c1.258,0,2.279,1.021,2.279,2.279C16.961,42.952,15.939,43.973,14.682,43.973z M19.24,44.076
			c-1.26,0-2.279-1.021-2.279-2.28s1.02-2.278,2.279-2.278c1.259,0,2.279,1.021,2.279,2.278C21.52,43.056,20.5,44.076,19.24,44.076z
			 M23.801,43.964c-1.26,0-2.281-1.021-2.281-2.28c0-1.259,1.021-2.279,2.281-2.279c1.258,0,2.279,1.021,2.279,2.279
			C26.08,42.943,25.059,43.964,23.801,43.964z M28.359,44.066c-1.26,0-2.279-1.021-2.279-2.279c0-1.26,1.021-2.279,2.279-2.279
			c1.26,0,2.279,1.021,2.279,2.279C30.639,43.047,29.619,44.066,28.359,44.066z M34.596,43.162
			c-0.443,0.252-0.896,0.492-1.356,0.715c-0.105,0.016-0.21,0.032-0.318,0.032c-1.26,0-2.281-1.021-2.281-2.28
			s1.021-2.279,2.281-2.279c1.258,0,2.279,1.021,2.279,2.279C35.199,42.222,34.966,42.757,34.596,43.162z M37.453,39.447
			c-1.258,0-2.279-1.021-2.279-2.278c0-1.26,1.021-2.28,2.279-2.28c1.26,0,2.281,1.021,2.281,2.28S38.712,39.447,37.453,39.447z
			 M37.501,34.889c-0.953,0-1.766-0.585-2.106-1.414c-0.463,0.553-0.974,1.063-1.508,1.547c0.76,0.369,1.286,1.143,1.286,2.045
			c0,1.259-1.02,2.278-2.278,2.278c-1.187,0-2.146-0.905-2.258-2.062c-0.011,0.005-0.021,0.01-0.029,0.015
			c-0.042,1.224-1.04,2.205-2.274,2.205c-0.686,0-1.293-0.31-1.711-0.787c-0.487,0.101-0.987,0.175-1.492,0.228
			c-0.38,0.283-0.845,0.457-1.354,0.457c-0.49,0-0.941-0.158-1.314-0.422c-0.537-0.035-1.068-0.098-1.59-0.188
			c-0.416,0.441-1.002,0.721-1.656,0.721c-1.141,0-2.078-0.841-2.244-1.936c-0.027-0.012-0.051-0.024-0.076-0.036
			c-0.195,1.062-1.119,1.868-2.238,1.868c-1.26,0-2.279-1.021-2.279-2.279c0-0.779,0.393-1.467,0.988-1.878
			c-0.463-0.399-0.898-0.83-1.313-1.282c-0.406,0.624-1.107,1.038-1.908,1.038c-1.26,0-2.279-1.021-2.279-2.28
			c0-1.09,0.766-1.998,1.787-2.224c-0.018-0.034-0.033-0.069-0.051-0.104c-1.033-0.218-1.809-1.133-1.809-2.229
			c0-0.547,0.199-1.042,0.521-1.435c-0.154-0.728-0.244-1.476-0.291-2.234c-0.117-0.273-0.182-0.575-0.182-0.893
			c0-0.302,0.061-0.59,0.168-0.854c0.039-0.797,0.119-1.583,0.271-2.344c-0.287-0.382-0.465-0.852-0.465-1.366
			c0-1.045,0.707-1.916,1.666-2.186c0.027-0.06,0.057-0.119,0.084-0.178c-0.977-0.257-1.701-1.139-1.701-2.197
			c0-1.259,1.021-2.279,2.279-2.279c-1.258,0-2.279-1.021-2.279-2.279c0-1.26,1.021-2.28,2.279-2.28c1.26,0,2.281,1.021,2.281,2.28
			c0,1.259-1.021,2.279-2.281,2.279c0.75,0,1.41,0.366,1.824,0.925c0.467-0.517,0.959-1.007,1.488-1.458
			c-0.621-0.407-1.031-1.106-1.031-1.904c0-1.26,1.02-2.28,2.279-2.28c1.146,0,2.086,0.85,2.246,1.952
			c0.027-0.013,0.055-0.027,0.082-0.04c0.219-1.033,1.135-1.809,2.23-1.809c0.609,0,1.158,0.242,1.568,0.631
			c0.498-0.087,1.002-0.149,1.516-0.187c0.398-0.343,0.91-0.557,1.477-0.557c0.604,0,1.15,0.239,1.559,0.623
			c0.449,0.055,0.896,0.121,1.334,0.213c0.418-0.447,1.006-0.732,1.666-0.732c1.215,0,2.197,0.951,2.268,2.148
			c0.006,0.002,0.012,0.005,0.018,0.008c-0.002-0.012-0.004-0.022-0.004-0.034c0-1.26,1.021-2.28,2.279-2.28
			c1.26,0,2.279,1.021,2.279,2.28c0,0.983-0.627,1.813-1.5,2.134c0.596,0.521,1.156,1.08,1.664,1.686
			c0.336-0.841,1.154-1.437,2.115-1.437c-1.258,0-2.279-1.021-2.279-2.279c0-1.26,1.021-2.28,2.279-2.28
			c1.26,0,2.281,1.021,2.281,2.28c0,1.259-1.021,2.279-2.281,2.279c1.26,0,2.281,1.021,2.281,2.279c0,1.26-1.021,2.28-2.281,2.28
			c-0.031,0-0.062-0.008-0.092-0.01c0.002,0.005,0.004,0.01,0.006,0.014c0.014,0,0.024-0.004,0.039-0.004
			c1.258,0,2.278,1.021,2.278,2.28c0,0.766-0.381,1.439-0.961,1.853c0.058,0.317,0.108,0.635,0.146,0.958
			c0.509,0.418,0.838,1.044,0.838,1.752c0,0.707-0.327,1.332-0.834,1.75c-0.036,0.33-0.092,0.654-0.147,0.979
			c0.563,0.415,0.937,1.078,0.937,1.833c0,1.259-1.021,2.279-2.281,2.279c-0.002,0.003-0.002,0.005-0.004,0.008
			c0.025-0.001,0.051-0.008,0.076-0.008c1.26,0,2.279,1.021,2.279,2.278C39.781,33.868,38.762,34.889,37.501,34.889z M44.307,32.289
			c0.019,0.115,0.034,0.23,0.034,0.35c0,0.868-0.489,1.613-1.202,1.998c-0.322,0.174-0.687,0.282-1.076,0.282
			c-1.26,0-2.278-1.021-2.278-2.28c0-1.259,1.02-2.279,2.278-2.279C43.201,30.359,44.137,31.197,44.307,32.289z M41.99,30.359
			c-1.26,0-2.279-1.021-2.279-2.279c0-1.26,1.021-2.28,2.279-2.28c1.26,0,2.279,1.021,2.279,2.28
			C44.27,29.339,43.25,30.359,41.99,30.359z"/>
		<path d="M24.256,37.415c1.48-0.065,2.9-0.365,4.225-0.861c0.334-0.588,1.088-2.081,1.729-4.464h-5.954L24.256,37.415
			L24.256,37.415z"/>
		<path d="M30.271,35.732c1.66-0.912,3.115-2.157,4.273-3.644h-3.041C31.109,33.638,30.66,34.845,30.271,35.732z"/>
		<path d="M31.234,24.523h-6.979v6.33h6.256C30.893,29.118,31.18,27.005,31.234,24.523z"/>
		<path d="M32.48,23.288h4.982c-0.053-2.42-0.729-4.687-1.875-6.648h-3.769C32.189,18.491,32.455,20.71,32.48,23.288z"/>
		<path d="M32.471,24.523c-0.052,2.457-0.316,4.573-0.683,6.33h3.619c1.152-1.863,1.875-4.021,2.027-6.33H32.471z"/>
		<path d="M30.55,16.64h-6.294v6.648h6.988C31.216,20.693,30.934,18.47,30.55,16.64z"/>
		<path d="M28.473,10.637c-1.322-0.495-2.74-0.793-4.217-0.858v5.624h6.004C29.607,12.863,28.816,11.26,28.473,10.637z"/>
		<path d="M34.775,15.403c-1.201-1.628-2.748-2.984-4.533-3.959c0.41,0.948,0.894,2.263,1.305,3.959H34.775z"/>
		<path d="M17.299,15.403h5.721V9.778c-1.348,0.06-2.643,0.314-3.863,0.733C18.865,11.02,18.004,12.668,17.299,15.403z"/>
		<path d="M17.047,30.854h5.973v-6.328h-6.695C16.381,27.005,16.666,29.118,17.047,30.854z"/>
		<path d="M16.314,23.288h6.705V16.64h-6.01C16.625,18.47,16.344,20.693,16.314,23.288z"/>
		<path d="M19.15,36.68c1.223,0.42,2.52,0.676,3.869,0.735V32.09h-5.67C18.041,34.667,18.867,36.202,19.15,36.68z"/>
		<path d="M17.398,11.255c-1.939,0.985-3.617,2.411-4.898,4.148h3.512C16.453,13.595,16.973,12.212,17.398,11.255z"/>
		<path d="M15.74,16.64h-4.053c-1.146,1.962-1.822,4.229-1.877,6.648h5.268C15.103,20.71,15.369,18.491,15.74,16.64z"/>
		<path d="M15.088,24.523h-5.25c0.154,2.311,0.875,4.467,2.029,6.33h3.902C15.404,29.098,15.141,26.982,15.088,24.523z"/>
		<path d="M12.73,32.09c1.244,1.596,2.826,2.909,4.643,3.835c-0.408-0.899-0.895-2.173-1.318-3.835H12.73z"/>
	</g>
</g>
<g>
</g>
<g>
</g>
<g>
</g>
<g>
</g>
<g>
</g>
<g>
</g>
<g>
</g>
<g>
</g>
<g>
</g>
<g>
</g>
<g>
</g>
<g>
</g>
<g>
</g>
<g>
</g>
<g>
</g>
</svg>
