<?xml version="1.0" encoding="iso-8859-1"?>
<!-- Generator: Adobe Illustrator 19.0.0, SVG Export Plug-In . SVG Version: 6.00 Build 0)  -->
<svg version="1.1" id="Capa_1" xmlns="http://www.w3.org/2000/svg" xmlns:xlink="http://www.w3.org/1999/xlink" x="0px" y="0px"
	 viewBox="0 0 490 490" style="enable-background:new 0 0 490 490;" xml:space="preserve">
<g>
	<g>
		<g>
			<path d="M268.672,104.016c23.395,0,41.635,6.748,52.738,12.714l-7.929,26.195c-9.914-5.952-26.569-11.105-44.412-11.105
				c-21.406,0-38.85,7.544-52.334,21.836c-11.892,11.512-19.825,29.382-23.795,50.422h110.627v19.87h-114.19
				c-0.396,5.153-0.796,11.105-0.796,16.666c0,2.391,0,4.374,0,7.153h114.986v19.464H191.358
				c3.174,23.023,11.095,40.096,21.802,52.014c14.67,15.479,34.502,23.023,55.908,23.023c21.017,0,39.257-7.935,48.371-13.105
				l6.74,25.025c-12.292,8.341-32.909,16.681-59.074,16.681c-32.12,0-60.663-12.307-80.484-35.348
				c-15.077-16.681-24.987-39.706-28.55-68.289H131.48v-19.464h22.61c0-1.983,0-3.966,0-5.95c0-6.359,0.389-12.326,0.789-17.87
				H131.48v-19.87h26.173c4.759-27.788,16.658-50.827,32.513-67.104C210.386,115.934,236.159,104.016,268.672,104.016
				 M268.672,88.703c-35.403,0-65.531,12.671-89.546,37.659c-16.064,16.492-27.653,37.892-33.87,62.403H131.48h-15.313v15.313v19.87
				v15.313v8.507v19.464v15.313h15.313h11.559c5.084,25.415,15.219,46.646,30.221,63.244c22.314,25.948,55.022,40.393,91.845,40.393
				c35.376,0,59.112-13.512,67.673-19.322l9.024-6.123l-2.837-10.531l-6.74-25.025l-5.144-19.092l-17.197,9.757
				c-4.594,2.606-21.118,11.111-40.816,11.111c-17.993,0-33.481-6.309-44.794-18.243c-6.06-6.751-10.774-15.544-14.008-26.169
				h93.299h15.313V267.23v-19.464v-8.507v-15.313v-19.87v-15.313h-15.313H212.85c3.682-10.178,8.595-18.357,14.535-24.107
				c11.301-11.955,24.774-17.526,41.683-17.526c15.993,0,29.675,4.806,36.532,8.922l16.845,10.111l5.69-18.804l7.929-26.195
				l3.63-11.993l-11.036-5.931C318.553,97.812,297.326,88.703,268.672,88.703L268.672,88.703z"/>
		</g>
	</g>
	<g>
		<g>
			<path d="M245,15.313c126.65,0,229.688,103.038,229.688,229.687S371.65,474.688,245,474.688S15.313,371.65,15.313,245
				S118.35,15.313,245,15.313 M245,0C109.688,0,0,109.69,0,245s109.688,245,245,245c135.308,0,245-109.69,245-245S380.308,0,245,0
				L245,0z"/>
		</g>
	</g>
</g>
<g>
</g>
<g>
</g>
<g>
</g>
<g>
</g>
<g>
</g>
<g>
</g>
<g>
</g>
<g>
</g>
<g>
</g>
<g>
</g>
<g>
</g>
<g>
</g>
<g>
</g>
<g>
</g>
<g>
</g>
</svg>
