<?xml version="1.0" encoding="iso-8859-1"?>
<!-- Generator: Adobe Illustrator 18.0.0, SVG Export Plug-In . SVG Version: 6.00 Build 0)  -->
<!DOCTYPE svg PUBLIC "-//W3C//DTD SVG 1.1//EN" "http://www.w3.org/Graphics/SVG/1.1/DTD/svg11.dtd">
<svg version="1.1" id="Capa_1" xmlns="http://www.w3.org/2000/svg" xmlns:xlink="http://www.w3.org/1999/xlink" x="0px" y="0px"
	 viewBox="0 0 396.139 396.139" style="enable-background:new 0 0 396.139 396.139;" xml:space="preserve">
<g>
	<path d="M388.986,227.273v-22.015h-82.5v8.125h-19.333v13.89h-3.396l-79.773-67.881h-11.829l-79.773,67.881h-3.395v-13.89H90.379
		V126.7H6.964v100.573H0v122.889h113.997v8.431h168.146v-8.431h113.995V227.273H388.986z M48.671,142.724
		c11.18,0,20.24,9.062,20.24,20.24c0,11.179-9.06,20.24-20.24,20.24c-11.178,0-20.24-9.062-20.24-20.24
		C28.431,151.785,37.493,142.724,48.671,142.724z M127.599,324.593h-13.602v8.431H17.139v-88.611h110.46V324.593z M187.599,324.593
		h-39.06v-80.181h39.06V324.593z M247.599,324.593h-39.06v-80.181h39.06V324.593z M142.377,225.716l55.692-47.39l55.692,47.39
		H142.377z M379,333.023h-96.857v-8.431h-13.604v-80.181H379V333.023z"/>
	<rect x="35.653" y="254.968" width="20" height="67.5"/>
	<rect x="83.819" y="254.968" width="20" height="67.5"/>
	<rect x="292.319" y="254.968" width="20" height="67.5"/>
	<rect x="340.487" y="254.968" width="20" height="67.5"/>
	<polygon points="48.671,88.652 66.469,117.74 90.379,117.74 90.379,112.366 48.671,37.546 6.964,112.366 6.964,117.74 
		30.873,117.74 	"/>
</g>
<g>
</g>
<g>
</g>
<g>
</g>
<g>
</g>
<g>
</g>
<g>
</g>
<g>
</g>
<g>
</g>
<g>
</g>
<g>
</g>
<g>
</g>
<g>
</g>
<g>
</g>
<g>
</g>
<g>
</g>
</svg>
