<?xml version="1.0" encoding="iso-8859-1"?>
<!-- Generator: Adobe Illustrator 19.0.0, SVG Export Plug-In . SVG Version: 6.00 Build 0)  -->
<svg version="1.1" id="Layer_1" xmlns="http://www.w3.org/2000/svg" xmlns:xlink="http://www.w3.org/1999/xlink" x="0px" y="0px"
	 viewBox="0 0 512 512" style="enable-background:new 0 0 512 512;" xml:space="preserve">
<g>
	<path style="fill:#969696;" d="M263.922,325.106l-25.065,55.878l-29.071-1.741c-0.585,0.585-1.179,1.148-1.787,1.695
		c19.527-21.345,18.957-54.592-1.695-75.243l30.812-30.812C251.358,289.126,260.293,306.689,263.922,325.106z"/>
	<path style="fill:#969696;" d="M379.252,209.777l-0.971,31.782l-53.174,22.363c-18.418-3.628-35.981-12.564-50.223-26.806
		l30.812-30.812c20.652,20.652,53.898,21.222,75.243,1.695C380.391,208.607,379.829,209.199,379.252,209.777z"/>
</g>
<g>
	<path style="fill:#B9B9B9;" d="M237.116,413.537l-61.625,61.625c-38.223,38.223-100.425,38.23-138.654,0s-38.223-100.432,0-138.654
		l61.625-61.625c38.23-38.23,100.425-38.23,138.654,0l-30.812,30.812c-21.237-21.237-55.793-21.237-77.031,0l-61.625,61.625
		c-21.237,21.237-21.237,55.793,0,77.031c21.237,21.237,55.793,21.237,77.031,0l61.625-61.625c0.585-0.585,1.148-1.179,1.695-1.788
		c0.609-0.547,1.202-1.109,1.787-1.695l54.136-54.136C270.038,356.12,261.103,389.55,237.116,413.537z"/>
	<path style="fill:#B9B9B9;" d="M475.162,175.491l-61.625,61.625c-23.987,23.987-57.419,32.923-88.431,26.806l54.145-54.145
		c0.577-0.577,1.141-1.171,1.687-1.779c0.609-0.547,1.202-1.109,1.788-1.695l61.625-61.625c21.237-21.237,21.237-55.793,0-77.031
		s-55.793-21.237-77.031,0l-61.625,61.625c-21.237,21.237-21.237,55.793,0,77.031l-30.812,30.812
		c-38.23-38.23-38.223-100.432,0-138.654l61.622-61.624c38.23-38.23,100.425-38.23,138.654,0S513.391,137.261,475.162,175.491z"/>
</g>
<path style="fill:#EEEEEE;" d="M356.141,155.858c-8.508-8.508-22.304-8.509-30.812,0L155.862,325.324
	c-8.508,8.508-8.508,22.304,0,30.812c8.508,8.508,22.304,8.508,30.812,0L356.14,186.67
	C364.649,178.162,364.649,164.366,356.141,155.858z"/>
<path d="M480.938,31.061c-41.412-41.412-108.794-41.414-150.209,0l-61.625,61.624c-17.1,17.1-27.921,39.771-30.468,63.834
	c-2.277,21.5,2.108,43.308,12.346,62.13l-32.335,32.335c-18.824-10.239-40.636-14.622-62.134-12.346
	c-24.062,2.548-46.73,13.369-63.831,30.469L31.059,330.73c-41.412,41.412-41.412,108.797,0,150.209
	c20.707,20.707,47.906,31.06,75.105,31.06s54.399-10.353,75.105-31.06l61.624-61.624c25.069-25.069,35.926-60.875,29.046-95.783
	c-0.871-4.426-5.168-7.309-9.596-6.436c-4.427,0.873-7.309,5.169-6.436,9.596c5.826,29.552-3.36,59.858-24.57,81.068l-61.624,61.624
	c-35.041,35.042-92.058,35.042-127.099,0c-35.042-35.042-35.042-92.058,0-127.1l61.624-61.624
	c26.907-26.906,68.454-33.582,102.268-17.536l-21.016,21.016c-21.875-6.431-45.701-0.516-61.995,15.777L61.87,361.541
	c-24.423,24.423-24.423,64.162,0,88.584c12.212,12.211,28.253,18.317,44.293,18.317s32.081-6.105,44.293-18.317l61.622-61.625
	c16.295-16.294,22.208-40.119,15.778-61.995l98.649-98.649c5.818,1.71,11.772,2.556,17.687,2.556
	c16.326,0,32.347-6.373,44.308-18.333l61.624-61.624c11.814-11.814,18.32-27.545,18.32-44.293s-6.507-32.477-18.32-44.293
	S422.58,43.55,405.832,43.55c-16.749,0-32.479,6.507-44.293,18.321l-61.625,61.625c-16.294,16.295-22.206,40.119-15.775,61.994
	l-21.016,21.016c-16.046-33.814-9.373-75.361,17.536-102.268l61.625-61.624c16.945-16.945,39.513-26.278,63.548-26.278
	c24.036,0,46.604,9.333,63.551,26.278c16.945,16.945,26.277,39.514,26.277,63.55s-9.332,46.604-26.278,63.55l-61.624,61.624
	c-21.21,21.21-51.52,30.393-81.07,24.569c-4.428-0.875-8.724,2.01-9.596,6.436c-0.873,4.427,2.009,8.724,6.436,9.596
	c6.908,1.362,13.846,2.028,20.734,2.028c27.921-0.001,54.942-10.967,75.051-31.074l61.624-61.624
	C500.968,161.237,512,134.563,512,106.164S500.968,51.093,480.938,31.061z M331.104,161.638c2.571-2.572,5.99-3.988,9.628-3.988
	c3.637,0,7.058,1.416,9.629,3.988c5.31,5.31,5.31,13.948,0,19.258L180.895,350.362c-2.572,2.571-5.992,3.988-9.629,3.988
	c-3.638,0-7.058-1.416-9.629-3.988c-5.31-5.31-5.31-13.948,0-19.258L331.104,161.638z M200.525,376.948l-61.624,61.625
	c-18.051,18.051-47.424,18.051-65.476,0c-18.052-18.052-18.052-47.425,0-65.476l61.622-61.624
	c9.753-9.753,23.164-14.476,36.503-13.394l-21.47,21.47c-11.68,11.68-11.68,30.686,0.001,42.367
	c5.657,5.658,13.181,8.774,21.183,8.774s15.525-3.116,21.183-8.774l21.471-21.471C215.003,353.785,210.279,367.195,200.525,376.948z
	 M311.471,135.051l61.625-61.625c8.728-8.728,20.354-13.534,32.738-13.534c12.383,0,24.009,4.807,32.737,13.534
	c18.052,18.052,18.052,47.425,0,65.476l-61.624,61.624c-9.753,9.754-23.163,14.477-36.503,13.394l21.471-21.471
	c11.68-11.68,11.68-30.687-0.001-42.367c-5.657-5.658-13.181-8.775-21.183-8.775s-15.525,3.117-21.183,8.775l-21.471,21.471
	C296.994,158.215,301.717,144.806,311.471,135.051z"/>
<g>
</g>
<g>
</g>
<g>
</g>
<g>
</g>
<g>
</g>
<g>
</g>
<g>
</g>
<g>
</g>
<g>
</g>
<g>
</g>
<g>
</g>
<g>
</g>
<g>
</g>
<g>
</g>
<g>
</g>
</svg>
