<?xml version="1.0" encoding="iso-8859-1"?>
<!-- Generator: Adobe Illustrator 16.0.0, SVG Export Plug-In . SVG Version: 6.00 Build 0)  -->
<!DOCTYPE svg PUBLIC "-//W3C//DTD SVG 1.1//EN" "http://www.w3.org/Graphics/SVG/1.1/DTD/svg11.dtd">
<svg version="1.1" id="Capa_1" xmlns="http://www.w3.org/2000/svg" xmlns:xlink="http://www.w3.org/1999/xlink" x="0px" y="0px"
	 width="466.48px" height="466.48px" viewBox="0 0 466.48 466.48" style="enable-background:new 0 0 466.48 466.48;"
	 xml:space="preserve">
<g>
	<g id="icons_24_">
		<g>
			<g>
				<path d="M113.774,117.5l0.001,0.006c0.02-0.004,0.039-0.01,0.06-0.014c0.019-0.002,0.04-0.003,0.059-0.006l-0.001-0.005
					c20.825-3.8,34.845-23.591,31.404-44.563c-3.442-20.97-23.049-35.243-43.996-32.188v-0.005c-0.02,0.003-0.039,0.008-0.059,0.012
					c-0.019,0.003-0.039,0.004-0.06,0.008l0.001,0.004c-20.822,3.8-34.843,23.589-31.403,44.559
					C73.221,106.279,92.831,120.553,113.774,117.5z"/>
				<path d="M256.65,347.108l-75.171-76.18c-5.161-6.179-19.082-93.779-19.679-97.416c-1.53-9.323,1.116-15.24,1.116-15.24
					s37.779-97.063,41.606-107.749c3.829-10.687,3.61-17.676-3.771-22.981c-7.389-5.307-19.994-5.465-22.984,3.771l-40.475,97.119
					c0,0-10.317-3.76-21.712-2.088c-0.096,0.018-0.188,0.036-0.284,0.055c-0.095,0.014-0.188,0.023-0.286,0.039
					c-11.329,2.057-19.906,8.917-19.906,8.917L25.719,56.261c-8.189-8-17.678-3.619-22.985,3.771
					c-5.298,7.385-2.274,15.714,3.77,22.981c6.044,7.268,73.856,88.807,73.856,88.807s4.395,4.762,5.924,14.084
					c0.121,0.74,0.156,0.953,14.694,89.538l9.753,149.876c0.636,9.771,8.76,17.272,18.415,17.272c0.403,0,0.81-0.013,1.218-0.039
					c10.18-0.663,17.896-9.453,17.233-19.633c0,0-8.792-130.323-8.792-135.115c0-2.942,2.865-4.62,6.243-1.195
					c3.378,3.423,85.306,86.449,85.306,86.449c7.165,7.261,18.861,7.34,26.123,0.174
					C263.737,366.064,263.815,354.369,256.65,347.108z"/>
			</g>
			<g>
				<path d="M341.415,153.566l-0.002,0.004c0.016,0.006,0.029,0.008,0.045,0.013c0.017,0.005,0.028,0.012,0.044,0.017l0.002-0.003
					c0.133,0.043,0.266,0.077,0.396,0.117c0.13,0.049,0.256,0.104,0.387,0.151l-0.002,0.004c0.017,0.004,0.029,0.008,0.046,0.013
					c0.014,0.004,0.027,0.012,0.043,0.017l0.001-0.003c15.674,5.061,32.572-3.344,37.936-18.989
					c5.362-15.643-2.826-32.646-18.309-38.263l0.001-0.003c-0.017-0.006-0.03-0.01-0.047-0.014
					c-0.014-0.005-0.027-0.011-0.043-0.017l-0.001,0.003c-0.133-0.042-0.265-0.077-0.396-0.117c-0.13-0.049-0.255-0.103-0.388-0.151
					l0.004-0.003c-0.016-0.006-0.031-0.008-0.046-0.014c-0.016-0.004-0.028-0.011-0.045-0.016l-0.001,0.003
					c-15.673-5.062-32.569,3.343-37.932,18.985S325.931,147.949,341.415,153.566z"/>
				<path d="M466.016,166.096c-1.591-6.898-8.285-9.908-20.375-7.393l-90.73,9.766c0,0-4.235-5.053-15.088-8.772
					c-10.853-3.72-17.25-2.313-17.25-2.313l-65.658-63.373c-8.004-9.404-15.138-11.134-20.625-6.663
					c-6.604,5.38-7.822,13.889-3.955,18.691c5.83,7.241,64.576,67.462,66.704,70.912c2.128,3.451,1.262,4.883-1.125,11.837
					c-1.013,2.955-16.629,46.469-22.552,62.601l-77.569,52.271c-6.768,4.561-8.557,13.745-3.997,20.513
					c4.56,6.769,13.744,8.559,20.513,3.997c0,0,81.802-54.971,83.782-56.456c1.98-1.485,4.634-0.554,3.739,2.268
					c-0.894,2.82-35.104,110.87-35.104,110.87c-2.464,7.781,1.847,16.085,9.628,18.549c1.483,0.471,2.986,0.693,4.464,0.693
					c6.271,0,12.091-4.022,14.085-10.32l38.611-121.946c0.163-0.515,0.286-1.034,0.391-1.554
					c21.947-64.014,21.787-63.549,21.213-61.875c2.384-6.954,2.578-8.618,6.374-10.037s87.134-12.935,96.183-15.077
					C463.672,181.862,467.93,174.396,466.016,166.096z"/>
			</g>
		</g>
	</g>
</g>
<g>
</g>
<g>
</g>
<g>
</g>
<g>
</g>
<g>
</g>
<g>
</g>
<g>
</g>
<g>
</g>
<g>
</g>
<g>
</g>
<g>
</g>
<g>
</g>
<g>
</g>
<g>
</g>
<g>
</g>
</svg>
