<?xml version="1.0" encoding="iso-8859-1"?>
<!-- Generator: Adobe Illustrator 16.0.0, SVG Export Plug-In . SVG Version: 6.00 Build 0)  -->
<!DOCTYPE svg PUBLIC "-//W3C//DTD SVG 1.1//EN" "http://www.w3.org/Graphics/SVG/1.1/DTD/svg11.dtd">
<svg version="1.1" id="Capa_1" xmlns="http://www.w3.org/2000/svg" xmlns:xlink="http://www.w3.org/1999/xlink" x="0px" y="0px"
	 width="585.167px" height="585.167px" viewBox="0 0 585.167 585.167" style="enable-background:new 0 0 585.167 585.167;"
	 xml:space="preserve">
<g>
	<path d="M28.141,316.526c-0.338,0.177-0.667,0.396-0.987,0.651H0.042v27.889l17.135,17.269h57.677l16.8-16.781v-52.111
		l-17.409-16.824H52.488c-0.073-1.596,0.262-3.005,0.262-3.005c2.326-1.145,4.701,1.741,4.701,1.741
		c1.111-0.094,2.515,0.709,2.515,0.709c1.65-0.542,6.601,0.737,6.826,0.375c0.189-2.956-1.017-4.759-2.006-5.724H91.66v-28.297
		l-19.144-19.585H19.966L0,242.662v51.012l17.342,17.342h15.774c-0.362,0.926-0.737,1.692-0.737,1.692L28.141,316.526z
		 M57.253,266.02c-0.569-0.262-1.321-0.268-1.321-0.268l-1.041-1.124c0-2.338-2.545-1.702-2.545-1.702l0.213-1.272
		c0.697,0,2.631,0.276,4.701,0.563v3.802H57.253z M55.295,320.125l3.504,0.14v8.452h-8.33l-0.006-1.431l0.091-7.673
		c0.143-1.851,1.522-0.749,1.522-0.749C53.244,320.04,55.295,320.125,55.295,320.125z M57.253,257.738
		c-0.1-0.036-0.201-0.088-0.301-0.131h0.301V257.738z M18.276,308.757L2.29,292.772v-49.082l18.581-18.499h50.655l18.052,18.511
		v24.743h-27.6c-0.198-0.319-0.329-0.569-0.329-0.569c-0.487-0.886-1.343-1.215-2.116-1.327v-4.022
		c2.183,0.286,4.067,0.487,4.29,0.262c1.023-1.029-1.614-2.682-4.29-3.998v-3.428h-7.469c-1.857-1.249-2.146-2.326-2.146-2.326
		c-0.636-4.034,3.818-2.387,3.818-2.387c2.356,0.18,2.843-1.16,2.843-1.16c-0.91-2.634-4.235-3.48-4.765-3.706
		c-0.63-0.262-0.73-0.5-0.487-0.983c0.167-0.332,1.958,0.478,2.539-0.094c1.327-1.334-3.294-4.284-3.294-4.284
		c3.008-0.167-0.311-3.242-0.311-3.242c-2-1.583-1.303-2.975-1.303-2.975c2.113,0.213,2.107-2,1.778-2.083
		c-3.112-0.712-2.582-1.927-2.582-1.927c0-1.06-0.518-2.158-0.518-2.158c0.423-1.906-0.438-1.525-0.438-1.525
		c-1.27,0-0.536,1.136-0.536,1.136c-0.459,1.918-1.781,3.245-1.781,3.245c-2.871-0.055-1.373,2.64-1.373,2.64l1.784-0.161
		l-0.417,1.744c-4.141,1.809-3.008,4.789-0.648,5.063c0.21,0.536-0.125,1.017-0.125,1.017c-2.457,0.106-1.967,1.048-4.043,2.059
		c-1.608,0.797-1.571,1.619-1.446,2.201c0.237,1.16,1.79,0.055,1.79,0.055l-1.528,2.076c-5.112,2.274-0.603,3.76-0.603,3.76
		c4.022-2.405,5.593-1.486,5.593-1.486c0.636,2.527-0.625,4.317-2.095,5.489h-7.907c0,0.722,0,1.976,0,3.553
		c-2.476,1.714-3.379,4.009-3.379,4.009c-1.696,1.702-0.85,2.546-0.85,2.546c0.843,0.423,2.63-0.262,4.223-1.051
		c0,1.586,0,3.239,0,4.835c-0.131,0.061-0.219,0.106-0.219,0.106c-1.06,2.119-5.093,3.821-5.093,3.821
		c-4.877,2.112-2.545,4.883-2.545,4.883c0.779,0.131,4.832-0.707,7.858-1.361c0,0.974,0,1.76,0,2.277c0.959,0,3.629,0,7.14,0
		c-0.898,1.525-2.475,3.111-2.475,3.111c-0.643,2.119-3.182,2.975-3.182,2.975c-6.79,1.693-6.372,4.025-6.372,4.025l5.093-0.423
		c1.486-1.27,2.551,0,2.551,0l1.696,0.423c0.856,1.273-0.405,5.042-0.405,5.042h-3.392c-0.213,1.279-2.545,1.267-2.545,1.267
		c-1.06-0.414-2.338,0.858-2.338,0.858c-0.423,0.847-2.332,1.699-2.332,1.699c-1.696,0.414-0.423,1.267-0.423,1.267
		c1.489-1.06,1.489,1.267,1.489,1.267c-0.423,1.065-3.876,1.017-3.821,1.912c0.107,1.583,11.673-3.191,11.673-3.191
		c1.482-1.254,2.542-0.621,2.542-0.621c1.062,1.693-2.119,3.812-2.119,3.812c-1.272,1.485-3.343,2.302-3.343,2.302
		c-4.899,0.792-5.45,3.629-5.499,4.049C22.247,308.757,18.276,308.757,18.276,308.757z M36.852,262.717c2.338-2.339,4.034,0,4.034,0
		c4.034,1.488,1.279,2.965,1.279,2.965c-0.53,0-3.647,1.404-5.961,2.47v-5.03C36.608,262.884,36.852,262.717,36.852,262.717z
		 M36.203,257.727v-0.119h0.341C36.425,257.645,36.315,257.69,36.203,257.727z M37.25,275.927c3.821-1.477,4.034,0.648,4.034,0.648
		c0.012,0.013,0.019,0.019,0.031,0.037h-5.112v-0.436C36.852,276.027,37.25,275.927,37.25,275.927z M44.384,319.979
		c0.691,1.424,0.822,5.309,0.822,5.309v0.792l-0.076,2.649h-7.648v-6.954c1.684-1.224,2.816-3.526,2.816-3.526
		C42.457,317.349,43.689,318.554,44.384,319.979z M28.065,308.757l5.2-1.066c0.417,0.056,0.523,0.476,0.475,1.066
		C31.743,308.757,29.831,308.757,28.065,308.757z M33.234,323.528c0.636-1.077,1.696-1.059,1.696-1.059
		c0.076,0.012,0.143,0.006,0.213,0.018c0,2.777,0,6.771,0,8.604c1.501,0,5.581,0,10.093,0l-0.18,4.013
		c-0.049,1.803-0.167,5.65-0.314,6.746c-0.429,3.258-1.172,3.715-1.632,4.014c-0.648,0.408-1.601,0.578-2.999,1.175
		c-3.438,1.449-3.142,5.072-4.801,6.126c-2.028,1.291-1.471,0.877-3.273,1.278c-1.809,0.402-2.783,2.405-2.783,2.405h36.845
		c-0.143-1.139,0.106-2.168-4.21-3.599c-4.208-1.395-2.083-2.149-7.505-4.907c-1.952-0.987-2.981-4.494-3.517-7.119
		c-0.405-1.997-0.165-2.91-0.165-2.91l-0.21-6.047l-0.006-1.175c4.713,0,9.034,0,10.586,0c0-1.687,0.006-6.15,0.006-10.705
		c2.521,0.433,6.735,3.77,6.735,3.77c4.457,2.552,3.611-0.22,3.611-0.22c-1.273-9.109-6.58-9.961-6.58-9.961
		c-3.179-0.854-1.06-2.766-1.06-2.766c3.824-2.965-0.691-3.781-0.691-3.781c-2.968,0.408-6.117-1.595-6.117-1.595
		c-5.307-4.037-3.367-6.625-3.367-6.625c0.423-2.759,6.729,1.333,6.729,1.333c1.696,1.486,3.392,0.201,3.392,0.201
		c0.21-0.846,2.189-2.387,2.189-2.387c3.608-2.759-5.097-3.386-5.097-3.386c-4.141-2.588-6.683-3.465-7.913-6.71
		c-0.347-0.911-0.365-1.517-0.365-1.517s6.521,0.606,6.884,0.688c0.365,0.079,2.716,0.341,2.655-0.481
		c-0.042-0.603-1.19-2.381-3.854-3.58c-2.332-1.042-4.327-3.09-5.13-4.415c10.02,0,20.134,0,20.134,0l16.35,15.691v49.706
		l-15.975,15.984H18.362L2.326,344.116V319.54h22.627c-2.606,3.587-4.165,8.61-4.165,8.61c-0.213,2.546,3.343,0.427,3.343,0.427
		s0.356-0.64,0.472-0.853c1.261-2.126,4.677-2.333,4.677-2.333C30.969,325.8,33.234,323.528,33.234,323.528z"/>
	<path d="M49.139,230.061c0.131,0.112,0.569,0.45,1.897,0.749c0.737,0.167,1.215,0.853,1.227,1.665c0,0.119-0.012,0.25-0.024,0.375
		c-0.137,0.822-0.761,2.083-1.839,2.393c0.07,0.049,0.56,0.43,0.56,0.43c1.842,1.434,3.343,4.134,1.802,4.646
		c2.089,1.428,2.783,2.905,2.807,3.48c0.061,1.297-0.706,1.601-0.843,1.79c1.218,0.591,2.558,1.763,3.145,3.471l0.155,0.463
		l-0.165,0.453c-0.304,0.856-1.543,2.26-4.232,2.059l-0.161-0.024l-0.158-0.043c-0.81-0.255-1.638-0.356-1.97-0.063
		c-0.085,0.082-0.191,0.207-0.191,0.481c0,0.106,0.119,0.268,0.131,0.386c0.042,0.083,0.143,0.238,0.311,0.442h10.269v5.251
		c1.86,1.078,3.255,2.244,3.504,3.38c0.03,0.137,0.052,0.28,0.058,0.423c0,0.548-0.213,1.078-0.63,1.498
		c-0.457,0.46-0.956,0.615-2.932,0.436v1.882c0.083,0.07,0.155,0.137,0.238,0.219h25.179v-21.473l-16.693-17.166H48.948
		c-0.013,0.061-0.024,0.116-0.031,0.161C49.146,228.173,49.477,230.018,49.139,230.061z"/>
	<path d="M35.585,301.522l0.125-0.14l0.149-0.11c0.368-0.243,0.691-0.529,0.98-0.815c-0.058,0.024-0.113,0.043-0.113,0.043
		c-10.894,4.476-12.267,3.61-12.784,3.288c-0.466-0.274-0.74-0.749-0.779-1.279c0-0.042-0.006-0.079-0.006-0.115
		c-0.012-1.486,1.635-1.918,2.737-2.198c-0.448-0.359-0.84-0.919-0.853-1.583c-0.006-0.104,0.006-0.213,0.018-0.323
		c0.095-0.536,0.487-1.242,1.727-1.607c0.694-0.316,1.422-0.712,1.571-0.943c0.019-0.03,0.189-0.28,0.189-0.28l0.137-0.141
		c0.192-0.194,1.833-1.93,3.447-1.266c0.457,0,0.837-0.141,1.041-0.28c0.04-0.207,0.17-1.011,0.17-1.011h3.529
		c0.237-0.92,0.375-1.836,0.368-2.418c0-0.042-0.012-0.055-0.018-0.106c-0.469-0.119-0.944-0.229-0.944-0.229l-0.417-0.146
		l-0.274-0.28c-0.094-0.092-0.213-0.223-0.63,0.131l-0.335,0.289l-6.774,0.566l-0.222-1.224c-0.149-0.841-0.07-3.721,7.282-5.578
		c0.536-0.195,1.952-0.913,2.299-2.07l0.076-0.262h-5.718v-2.838c-2.63,0.536-5.033,0.935-5.779,0.816l-0.499-0.088l-0.326-0.387
		c-0.107-0.122-0.874-1.066-0.886-2.417c0-0.274,0.027-0.569,0.101-0.874c0.356-1.528,1.647-2.773,3.848-3.735
		c0.996-0.423,2.536-1.264,3.541-2.149v-2.975c-0.971,0.231-1.863,0.25-2.539-0.088l-0.192-0.1l-0.162-0.155
		c-0.045-0.024-0.605-0.603-0.618-1.577c-0.006-0.697,0.298-1.602,1.26-2.649c0.229-0.494,0.91-1.821,2.25-3.157v-5.849h10.449
		c0.401-0.573,0.657-1.246,0.642-2.019c0-0.024,0-0.052-0.006-0.083c-0.643,0.058-1.803,0.326-3.678,1.446l-0.493,0.302l-0.56-0.146
		c-0.655-0.167-2.825-0.877-2.968-2.648c-0.006-0.049-0.012-0.101-0.012-0.149c-0.012-1.428,1.339-2.588,2.606-3.218
		c0,0-0.012-0.006-0.012-0.013c-0.201-0.237-0.505-1.227-0.469-1.385c0.058-1.721,2.14-3.03,3.991-4.445
		c0.083-0.079,0.167-0.174,0.25-0.256c-0.244-0.161-0.463-0.356-0.618-0.643c-0.149-0.274-0.222-0.542-0.222-0.822
		c-0.016-1.066-0.119-2.625,2.28-4.253c-0.113-0.155-0.375-0.53-0.375-0.53c-0.137-0.198-0.667-1.495-0.673-2.433
		c-0.006-0.347,0.07-0.703,0.25-1.059c0.292-0.566,0.536-1.228,2.058-1.267c-0.012,0,0.387,0,0.387,0
		c0.042-0.006,0.554-1.103,0.922-1.815c-0.012-0.037-0.012-0.073-0.024-0.104H21.811L4.615,244.839v47.143l14.632,14.645h7.465
		c0.597-1.127,2.144-2.838,6.135-3.508C32.896,303.106,34.632,302.649,35.585,301.522z"/>
	<path d="M25.791,328.449l-0.636,1.132l-0.32,0.189c-0.84,0.505-2.956,1.577-4.39,0.682c-0.393-0.256-1.02-0.834-1.042-2.033
		c0-0.116,0.006-0.232,0.015-0.359l0.012-0.141l0.043-0.146c0.155-0.511,0.986-3.044,2.375-5.748H4.64v21.307l14.66,14.888h7.782
		l0.935-1.942c0.131-0.256,1.327-2.606,3.708-3.13l1.054-0.201c0.493-0.079,0.493-0.079,1.784-0.901
		c0.393-0.243,0.804-0.919,1.142-1.747c0.667-1.626,1.358-3.429,3.854-4.487c0.779-0.329,1.014-0.476,1.668-0.646
		c0.42-0.109,0.968-0.334,1.129-0.426c0.183-0.115,0.661-0.414,1.011-3.032c0.088-0.683,0.219-2.296,0.256-4.263
		c0,0,0.042-2.35,0.042-2.375c0,0,0.006-0.127,0.006-0.134c-0.012,0.013-0.131,0.171-0.131,0.171l0.045-1.522H32.848v-7.935
		c-0.941,0.664-2.231,1.31-3.522,1.151C28.546,326.835,26.494,327.243,25.791,328.449z"/>
	<path d="M67.434,356.44l0.207,1.778h5.023l14.617-14.65v-47.8L72.26,281.453H57.515c0.405,0.262,0.816,0.511,1.267,0.709
		c2.898,1.291,4.57,3.398,4.661,4.729c0,0.03,0,0.061,0,0.097c0.006,0.551-0.262,1.23-1.06,1.604
		c-0.548,0.262-2.582,0.591-3.611,0.149c-0.941-0.1-2.561-0.262-4.314-0.417c0.868,1.751,2.314,2.667,4.795,4.132
		c0,0,1.559,0.938,2.003,1.205c2.862,0.244,6.235,0.938,6.813,2.881c0.049,0.176,0.088,0.383,0.088,0.59
		c0.012,0.658-0.295,1.486-1.403,2.333c-0.768,0.614-1.589,1.419-1.72,1.711c-0.034,0.097-0.137,0.426-0.137,0.426l-0.344,0.269
		c-0.88,0.657-3.018,1.437-4.987-0.165c-1.76-1.15-3.848-2.058-4.652-2.063c-0.019,0.085-0.046,0.182-0.046,0.182l-0.131,0.195
		c-0.073,0.128-0.116,0.305-0.116,0.523c0.012,0.828,0.673,2.29,3.142,4.189c0.28,0.158,2.85,1.688,5.136,1.364l0.213-0.036
		l0.219,0.042c0.472,0.085,2.829,0.603,3.285,2.448c0.292,1.211-0.356,2.466-1.909,3.695c-0.055,0.062-0.113,0.122-0.155,0.195
		c0.119,0.061,0.316,0.134,0.624,0.226c0.886,0.188,6.278,1.724,7.599,11.076c0.189,0.755,0.113,1.778-0.691,2.423
		c-1.315,1.054-3.337,0.135-4.944-0.791l-0.088-0.049l-0.085-0.073c-1.093-0.87-2.39-1.735-3.568-2.411v10.729H51.91l0.167,4.787
		v0.072c0,0.019-0.219,0.762,0.137,2.546c0.643,3.13,1.666,5.602,2.801,6.181c2.966,1.504,3.897,2.259,4.637,3.129
		c0.594,0.701,0.944,1.121,2.682,1.688C66.387,353.323,67.236,354.547,67.434,356.44z"/>
	<polygon points="54.696,300.067 54.732,300.019 54.732,300.007 	"/>
	<path d="M244.293,308.58c-10.333,3.8-11.536,11.661-11.536,16.1c0,3.775,1.245,16.094,17.47,16.094
		c7.526,0,12.34-3.435,14.979-6.181c1.102,3.8,4.408,6.053,9.164,6.053c5.492,0,8.574-2.758,11.816-6.662l0.655-0.846l-1.97-2.247
		l-0.965,0.828c-0.487,0.414-1.081,0.597-1.958,0.597c-3.51,0-4.186-3.275-4.186-7.508c0-1.681,0.064-4.439,0.137-7.617
		c0.106-4.616,0.231-10.364,0.231-15.51c0-5.863-0.192-11.469-2.707-15.521c-3.373-5.112-8.802-7.49-17.147-7.49
		c-12.851,0-18.712,7.913-20.183,12.571l-0.298,0.922l2.999,1.797l0.648-1.224c0.024-0.062,3.346-6.232,11.436-6.232
		c5.499,0,9.557,2.655,10.979,6.884c0.707,2.21,0.707,3.062,0.707,6.631v1.9C257.236,304.208,254.956,304.659,244.293,308.58z
		 M264.577,329.575c-3.206,2.296-6.872,2.765-9.435,2.765c-7.776,0-8.936-5.438-8.936-8.671c0-4.141,1.803-7.666,5.228-9.408
		c2.469-1.235,5.173-2.569,13.144-4.962V329.575z"/>
	<path d="M131.398,337.784c6.071,1.973,11.977,2.824,19.747,2.824c8.689,0,28.899-2.338,28.899-24.027
		c0-12.806-7.271-17.664-14.995-22.816l-9.066-6.003c-7.901-5.218-11.512-7.612-11.512-14.657c0-5.127,1.546-11.968,14.833-11.968
		c5.651,0,10.994,1.142,13.408,3.556c1.751,1.769,2.68,4.059,2.898,7.237l0.073,1.175h3.039l-0.094-1.872
		c-0.101-2.512-0.055-4.951-0.055-7.752c0-3.541,0.085-6.808,0.085-6.838l0.04-1.068l-1.081-0.192
		c-0.329-0.042-8.26-1.397-18.563-1.397c-25.084,0-27.024,16.849-27.024,22c0,10.543,5.063,15.832,15.01,22.408l7.158,4.78
		l1.083,0.743c6.78,4.566,11.691,7.879,11.691,15.808c0,9.279-5.31,13.591-16.721,13.591c-5.438,0-11.298-1.718-13.844-4.598
		c-1.66-1.869-2.558-4.524-2.713-7.222l-0.061-1.254l-3.535-0.007l0.174,2.996c0.125,1.851,0.25,4.116,0.25,9.919v4.342
		L131.398,337.784z"/>
	<path d="M226.909,287.819v-7.408h-20.372v-13.463h-2.612l-1.346,2.29c-0.07,0.104-4.049,7.642-9.804,12.102
		c-1.626,1.258-3.029,2.293-6.704,3.815l-0.779,0.319v2.345h7.907l-0.049,4.174c-0.101,8.891-0.186,16.562-0.186,26.123
		c0,3.471,0,9.242,0.947,12.189c2.262,7.393,7.401,10.688,16.654,10.688c10.875,0,15.488-6.017,15.701-6.254l0.518-0.578
		l-1.047-2.442l-1.236,0.634c-0.024,0.036-3.197,1.631-7.325,1.631c-8.894,0-10.638-5.346-10.638-14.747v-31.411h20.372V287.819z"/>
	<path d="M337.887,324.765c-0.141,3.977-0.256,8.574-2.192,10.522c-1.035,1.029-2.643,1.681-4.963,2.046l-1.077,0.134v2.771
		l1.382-0.128c5.34-0.511,9.164-0.511,13.585-0.511c3.873,0,7.575,0.207,11.88,0.426l2.966,0.152v-2.795l-1.182-0.086
		c-1.717-0.109-3.696-0.815-4.628-1.68c-1.857-1.729-2.24-4.506-2.24-14.383V303.77c0-2.923-0.201-8.439-0.779-10.704
		c-2.004-9.149-9.043-14.182-19.839-14.182c-8.245,0-14.321,3.498-17.342,5.742v-4.737l-1.176-0.694l-0.688,0.307
		c-0.73,0.348-2.776,1.571-6.296,2.125c-4.604,0.898-8.967,1.135-10.812,1.135c-0.381,0-0.673,0-0.911-0.03l-1.352-0.101v3.416
		l1.126,0.125c0.149,0.006,0.319,0.03,0.493,0.037c1.446,0.1,4.152,0.286,5.374,2.052c1.074,1.595,1.184,4.756,1.184,12.111v17.098
		c0,10.199-0.109,15.297-1.963,17.367c-1.77,1.99-4.303,2.387-5.304,2.472l-1.148,0.085v2.85l1.34-0.134
		c5.361-0.499,9.414-0.499,13.749-0.499c3.751,0,7.355,0.195,11.496,0.402l3.191,0.17v-2.795l-1.176-0.085
		c-1.735-0.116-3.684-0.822-4.627-1.687c-1.846-1.718-2.247-4.5-2.247-14.377v-31.42c2.515-1.297,5.863-2.518,11.204-2.518
		c7.77,0,11.801,3.602,12.701,11.335c0.487,4.573,0.487,9.213,0.487,13.683c0,3.439,0,8.141-0.104,10.375
		C337.936,323.425,337.899,324.107,337.887,324.765z"/>
	<path d="M391.362,254.771c1.583-1.596,4.153-2.156,6.028-2.156c4.512,0,7.807,1.982,10.084,7.058l0.316,0.749l1.431-0.019
		l5.931-8.25l-0.176-1.267l-0.463-0.372c-3.233-2.621-8.769-4.561-14.602-4.561c-13.573,0-21.647,6.263-24.016,18.614
		c-0.719,3.715-0.877,10.562-0.89,15.862c-1.534,1.203-3.629,2.314-7.015,3.708l-0.779,0.338v3.349h7.794v29.657
		c0,10.199-0.085,15.241-1.942,17.312c-1.766,1.997-4.293,2.393-5.315,2.454l-1.163,0.104v2.904l1.382-0.134
		c5.353-0.5,10.4-0.5,14.833-0.5c3.544,0,8.439,0.158,15.028,0.5l1.327,0.079v-3.197h-1.267c-1.497,0-6.594-0.183-8.25-2.703
		c-1.054-1.547-1.31-5.383-1.31-13.286v-33.184h13.335v-7.407H388.33v-11.566C388.33,261.212,388.768,257.346,391.362,254.771z"/>
	<path d="M435.392,341.242c22.463,0,30.434-17.257,30.434-32.065c0-19.038-10.911-30.418-29.173-30.418
		c-22.469,0-30.421,17.266-30.421,32.069C406.232,329.874,417.143,341.242,435.392,341.242z M427.677,288.392
		c2.083-1.803,4.938-2.713,8.465-2.713c14.723,0,15.466,20.112,15.466,24.144c0,10.437-2.423,17.78-7.222,21.799
		c-2.119,1.803-4.98,2.716-8.477,2.716c-14.741,0-15.479-20.118-15.479-24.137C420.444,299.763,422.868,292.413,427.677,288.392z"/>
	<path d="M499.882,288.945c5.432,0,8.239,2.615,9.634,4.808l0.378,0.578h2.423l5.042-9.219v-1.885l-0.408-0.387
		c-2.466-2.204-5.852-3.327-10.022-3.327c-6.412,0-10.967,2.868-13.835,5.568v-5.194l-1.053-0.557l-0.694,0.313
		c-1.011,0.481-3.501,1.227-6.406,1.708c-4.604,0.904-8.957,1.136-10.814,1.136c-0.377,0-0.761-0.006-0.979-0.031l-1.285-0.034
		v3.623l1.169,0.125c0.122,0.006,0.292,0.03,0.463,0.037c1.455,0.1,4.152,0.286,5.376,2.052c1.066,1.595,1.151,4.756,1.151,12.111
		v17.098c0,10.199-0.073,15.113-1.931,17.184c-1.747,1.998-4.305,2.399-5.31,2.467l-1.175,0.091v3.032l1.389-0.134
		c5.346-0.499,10.375-0.499,14.833-0.499c3.52,0,8.433,0.158,15.016,0.499l1.327,0.079v-3.318h-1.248
		c-1.516,0-6.57-0.195-8.263-2.697c-1.029-1.547-1.291-5.268-1.291-13.165V290.86C495.255,289.563,497.398,288.945,499.882,288.945z
		"/>
	<path d="M583.542,334.922c-1.419-0.116-4.024-0.402-5.255-2.192c-1.06-1.438-1.156-5.955-1.156-13.25v-48.759
		c0-7.913,0.049-18.444,0.45-23.382l0.049-0.584l-1.023-0.618l-0.597,0.231c-1.218,0.447-3.556,0.971-5.918,1.352
		c-5.615,1.111-12.525,1.69-12.812,1.69h-1.266l-0.262,2.676l1.139,0.109c0.133,0.016,0.292,0.027,0.475,0.034
		c1.425,0.113,4.049,0.311,5.261,2.058c1.06,1.595,1.163,5.581,1.163,13.037v12.708c-2.576-0.551-6.875-1.136-11.686-1.136
		c-13.128,0-23.54,6.217-28.545,17.074c-2.126,4.682-3.265,10.248-3.265,16.094c0,17.658,10.62,29.045,27.036,29.045
		c7.867,0,13.749-3.422,16.721-5.614v5.054l1.602,0.536l0.542-0.243c1.06-0.487,3.19-0.908,6.102-1.383
		c5.065-0.864,10.278-1.224,11.618-1.224h1.254v-3.216l-1.133-0.048C583.901,334.946,583.73,334.934,583.542,334.922z
		 M563.783,330.124c-3.429,2.131-7.381,2.447-9.487,2.447h-0.548c-17.366,0-19.254-15.473-19.254-22.128
		c0-16.404,5.693-24.39,17.348-24.39c7.338,0,10.967,3.044,11.941,4.016V330.124z"/>
</g>
<g>
</g>
<g>
</g>
<g>
</g>
<g>
</g>
<g>
</g>
<g>
</g>
<g>
</g>
<g>
</g>
<g>
</g>
<g>
</g>
<g>
</g>
<g>
</g>
<g>
</g>
<g>
</g>
<g>
</g>
</svg>
